<svg width="20" height="20" viewBox="0 0 20 20" fill="none" xmlns="http://www.w3.org/2000/svg">
<path d="M9.99984 8.33333C10.959 8.33333 11.6665 7.62667 11.6665 6.66667C11.6665 5.70667 10.959 5 9.99984 5C9.0415 5 8.33317 5.70667 8.33317 6.66667C8.33317 7.62667 9.0415 8.33333 9.99984 8.33333ZM9.99984 9.16667C8.159 9.16667 6.6665 10.51 6.6665 12.1667V12.4883H13.3332V12.1667C13.3332 10.51 11.8407 9.16667 9.99984 9.16667Z" fill="#030303"/>
<path d="M15.8333 1.66666H4.16667C3.2475 1.66666 2.5 2.41416 2.5 3.33332V14.1667C2.5 15.0858 3.2475 15.8333 4.16667 15.8333H7.5L10 18.3333L12.5 15.8333H15.8333C16.7525 15.8333 17.5 15.0858 17.5 14.1667V3.33332C17.5 2.41416 16.7525 1.66666 15.8333 1.66666ZM11.6667 14.1667L10 15.8333L8.33333 14.1667H4.16667V3.33332H15.8333L15.835 14.1667H11.6667Z" fill="#030303"/>
</svg>
