<svg width="22" height="22" viewBox="0 0 22 22" fill="none" xmlns="http://www.w3.org/2000/svg">
<path d="M20.625 16.5C20.625 16.8647 20.4801 17.2144 20.2223 17.4723C19.9644 17.7301 19.6147 17.875 19.25 17.875H2.75C2.38533 17.875 2.03559 17.7301 1.77773 17.4723C1.51987 17.2144 1.375 16.8647 1.375 16.5V8.25C1.375 7.88533 1.51987 7.53559 1.77773 7.27773C2.03559 7.01987 2.38533 6.875 2.75 6.875H4.3615C5.45495 6.8744 6.50343 6.43968 7.2765 5.66637L8.41775 4.52787C8.67488 4.27067 9.02344 4.12581 9.38713 4.125H12.6101C12.9748 4.12508 13.3244 4.26999 13.5823 4.52787L14.7208 5.66637C15.1039 6.04961 15.5587 6.3536 16.0594 6.56098C16.56 6.76836 17.0966 6.87506 17.6385 6.875H19.25C19.6147 6.875 19.9644 7.01987 20.2223 7.27773C20.4801 7.53559 20.625 7.88533 20.625 8.25V16.5ZM2.75 5.5C2.02065 5.5 1.32118 5.78973 0.805456 6.30546C0.289731 6.82118 0 7.52065 0 8.25L0 16.5C0 17.2293 0.289731 17.9288 0.805456 18.4445C1.32118 18.9603 2.02065 19.25 2.75 19.25H19.25C19.9793 19.25 20.6788 18.9603 21.1945 18.4445C21.7103 17.9288 22 17.2293 22 16.5V8.25C22 7.52065 21.7103 6.82118 21.1945 6.30546C20.6788 5.78973 19.9793 5.5 19.25 5.5H17.6385C16.9092 5.49984 16.2099 5.21001 15.6942 4.69425L14.5558 3.55575C14.0401 3.03999 13.3408 2.75016 12.6115 2.75H9.3885C8.65921 2.75016 7.95986 3.03999 7.44425 3.55575L6.30575 4.69425C5.79014 5.21001 5.09079 5.49984 4.3615 5.5H2.75Z" fill="#002736"/>
<path d="M11 15.125C10.0883 15.125 9.21398 14.7628 8.56932 14.1182C7.92466 13.4735 7.5625 12.5992 7.5625 11.6875C7.5625 10.7758 7.92466 9.90148 8.56932 9.25682C9.21398 8.61216 10.0883 8.25 11 8.25C11.9117 8.25 12.786 8.61216 13.4307 9.25682C14.0753 9.90148 14.4375 10.7758 14.4375 11.6875C14.4375 12.5992 14.0753 13.4735 13.4307 14.1182C12.786 14.7628 11.9117 15.125 11 15.125ZM11 16.5C12.2764 16.5 13.5004 15.993 14.403 15.0905C15.3055 14.1879 15.8125 12.9639 15.8125 11.6875C15.8125 10.4111 15.3055 9.18707 14.403 8.28455C13.5004 7.38203 12.2764 6.875 11 6.875C9.72365 6.875 8.49957 7.38203 7.59705 8.28455C6.69453 9.18707 6.1875 10.4111 6.1875 11.6875C6.1875 12.9639 6.69453 14.1879 7.59705 15.0905C8.49957 15.993 9.72365 16.5 11 16.5ZM4.125 8.9375C4.125 9.11984 4.05257 9.2947 3.92364 9.42364C3.7947 9.55257 3.61984 9.625 3.4375 9.625C3.25516 9.625 3.0803 9.55257 2.95136 9.42364C2.82243 9.2947 2.75 9.11984 2.75 8.9375C2.75 8.75516 2.82243 8.5803 2.95136 8.45136C3.0803 8.32243 3.25516 8.25 3.4375 8.25C3.61984 8.25 3.7947 8.32243 3.92364 8.45136C4.05257 8.5803 4.125 8.75516 4.125 8.9375Z" fill="#002736"/>
</svg>
