<svg width="22" height="22" viewBox="0 0 22 22" fill="none" xmlns="http://www.w3.org/2000/svg">
<path d="M1.8335 11L6.41683 14.6667V11.9167H14.6668V10.0833H6.41683V7.33334L1.8335 11Z" fill="#002736"/>
<path d="M11.9177 2.74909C10.8337 2.74608 9.75996 2.95819 8.75859 3.37312C7.75721 3.78805 6.84812 4.39756 6.08398 5.16634L7.38015 6.4625C8.59198 5.25067 10.2035 4.58242 11.9177 4.58242C13.6318 4.58242 15.2433 5.25067 16.4552 6.4625C17.667 7.67434 18.3352 9.28584 18.3352 11C18.3352 12.7142 17.667 14.3257 16.4552 15.5375C15.2433 16.7493 13.6318 17.4176 11.9177 17.4176C10.2035 17.4176 8.59198 16.7493 7.38015 15.5375L6.08398 16.8337C7.6414 18.392 9.71307 19.2509 11.9177 19.2509C14.1222 19.2509 16.1939 18.392 17.7513 16.8337C19.3097 15.2763 20.1686 13.2046 20.1686 11C20.1686 8.79542 19.3097 6.72375 17.7513 5.16634C16.9872 4.39756 16.0781 3.78805 15.0767 3.37312C14.0753 2.95819 13.0016 2.74608 11.9177 2.74909Z" fill="#002736"/>
</svg>
