<svg width="22" height="22" viewBox="0 0 22 22" fill="none" xmlns="http://www.w3.org/2000/svg">
<path d="M10.0815 14.6667L14.6649 11L10.0815 7.33334V10.0833H1.83154V11.9167H10.0815V14.6667Z" fill="#002736"/>
<path d="M11.9157 2.74909C10.8318 2.74608 9.75801 2.95819 8.75663 3.37312C7.75526 3.78805 6.84617 4.39756 6.08203 5.16634L7.3782 6.4625C8.59003 5.25067 10.2015 4.58242 11.9157 4.58242C13.6299 4.58242 15.2414 5.25067 16.4532 6.4625C17.665 7.67434 18.3333 9.28584 18.3333 11C18.3333 12.7142 17.665 14.3257 16.4532 15.5375C15.2414 16.7493 13.6299 17.4176 11.9157 17.4176C10.2015 17.4176 8.59003 16.7493 7.3782 15.5375L6.08203 16.8337C7.63945 18.392 9.71111 19.2509 11.9157 19.2509C14.1203 19.2509 16.1919 18.392 17.7494 16.8337C19.3077 15.2763 20.1666 13.2046 20.1666 11C20.1666 8.79542 19.3077 6.72375 17.7494 5.16634C16.9852 4.39756 16.0761 3.78805 15.0748 3.37312C14.0734 2.95819 12.9996 2.74608 11.9157 2.74909Z" fill="#002736"/>
</svg>
