<svg width="15" height="15" viewBox="0 0 15 15" fill="none" xmlns="http://www.w3.org/2000/svg">
<path d="M4.05714 13.5428V14.3428H0.228571V6.94285H5.65158L10.0122 8.571C10.0123 8.57104 10.0124 8.57109 10.0125 8.57113C10.361 8.70268 10.6613 8.93714 10.8734 9.24338C11.0856 9.54972 11.1995 9.91338 11.2 10.286L11.2003 10.5143H11.4286H12.8571C13.9166 10.5143 14.7714 11.3691 14.7714 12.4286V12.9748L9.28184 14.6903L4.34676 13.3226L4.05714 13.2423V13.5428ZM2.85714 13.3714H3.08571V13.1428V8.14285V7.91428H2.85714H1.42857H1.2V8.14285V13.1428V13.3714H1.42857H2.85714ZM13.5677 12.3397L13.8217 12.2609L13.7057 12.0217C13.5538 11.7085 13.2247 11.4928 12.8571 11.4928H9.03571C8.67563 11.4928 8.32144 11.4329 7.97942 11.3189L7.97915 11.3188L6.49601 10.8265L6.80213 9.90324L8.28513 10.3955L8.28513 10.3955L8.28697 10.3961C8.33657 10.4121 8.40161 10.4225 8.46182 10.4303C8.52698 10.4388 8.60469 10.4464 8.68869 10.4533C8.85696 10.467 9.05843 10.4783 9.25096 10.4872C9.44388 10.4962 9.6296 10.503 9.76698 10.5075C9.8357 10.5097 9.89242 10.5114 9.932 10.5125L9.97789 10.5138L9.99 10.5141L9.99314 10.5142L9.99395 10.5142L9.99417 10.5142L9.99423 10.5142L10 10.2857L9.99426 10.5142L10.2286 10.5201V10.2857C10.2286 9.92633 10.0055 9.60592 9.67449 9.47935L9.67449 9.47934L9.67271 9.47868L5.51557 7.92868L5.47694 7.91428H5.43571H4.28571H4.05714V8.14285V12.0571V12.231L4.22472 12.2774L9.20329 13.656L9.26794 13.6739L9.33202 13.654L13.5677 12.3397Z" fill="black" stroke="#595959" stroke-width="0.457143"/>
<path fill-rule="evenodd" clip-rule="evenodd" d="M12.3216 9.03571C12.89 9.03571 13.435 8.80994 13.8369 8.40808C14.2387 8.00621 14.4645 7.46117 14.4645 6.89285C14.4645 6.32453 14.2387 5.77948 13.8369 5.37762C13.435 4.97576 12.89 4.74999 12.3216 4.74999C11.7533 4.74999 11.2083 4.97576 10.8064 5.37762C10.4045 5.77948 10.1788 6.32453 10.1788 6.89285C10.1788 7.46117 10.4045 8.00621 10.8064 8.40808C11.2083 8.80994 11.7533 9.03571 12.3216 9.03571ZM15.0002 6.89285C15.0002 7.60325 14.718 8.28456 14.2157 8.78688C13.7133 9.28921 13.032 9.57142 12.3216 9.57142C11.6112 9.57142 10.9299 9.28921 10.4276 8.78688C9.92527 8.28456 9.64307 7.60325 9.64307 6.89285C9.64307 6.18245 9.92527 5.50114 10.4276 4.99881C10.9299 4.49648 11.6112 4.21428 12.3216 4.21428C13.032 4.21428 13.7133 4.49648 14.2157 4.99881C14.718 5.50114 15.0002 6.18245 15.0002 6.89285Z" fill="#002736"/>
<path d="M11.4849 7.39857C11.5101 7.71785 11.7624 7.96642 12.2151 7.99642V8.23214H12.416V7.99482C12.8847 7.96214 13.1585 7.71142 13.1585 7.34821C13.1585 7.01714 12.9496 6.84678 12.5746 6.75892L12.416 6.72142V6.07857C12.6174 6.1016 12.7449 6.21142 12.7754 6.36357H13.1279C13.1028 6.05553 12.8387 5.81499 12.416 5.78874V5.55357H12.2151V5.79464C11.8149 5.83374 11.5428 6.07428 11.5428 6.41499C11.5428 6.71607 11.7453 6.90785 12.0822 6.98607L12.2151 7.01874V7.70017C12.0094 7.6691 11.8728 7.55553 11.8422 7.39857H11.4849ZM12.2135 6.67321C12.0158 6.62767 11.9087 6.53392 11.9087 6.39357C11.9087 6.23607 12.0244 6.11821 12.2151 6.08392V6.67321H12.2135ZM12.4449 7.07285C12.6854 7.12857 12.7958 7.21857 12.7958 7.37767C12.7958 7.55928 12.6581 7.68357 12.416 7.7066V7.06642L12.4449 7.07285Z" fill="#002736"/>
<path d="M6.96443 1C6.82234 1 6.68608 1.05644 6.58562 1.15691C6.48515 1.25737 6.42871 1.39363 6.42871 1.53571V5.82143C6.42871 5.96351 6.48515 6.09977 6.58562 6.20023C6.68608 6.3007 6.82234 6.35714 6.96443 6.35714H9.15175C9.18282 6.17286 9.22942 5.99393 9.28996 5.82143H8.03585C8.03585 5.53727 7.92297 5.26474 7.72204 5.06381C7.52111 4.86288 7.24859 4.75 6.96443 4.75V2.60714C7.24859 2.60714 7.52111 2.49426 7.72204 2.29333C7.92297 2.0924 8.03585 1.81987 8.03585 1.53571H13.393C13.393 1.81987 13.5059 2.0924 13.7068 2.29333C13.9077 2.49426 14.1803 2.60714 14.4644 2.60714V4.49714C14.668 4.67928 14.8485 4.88714 15.0001 5.11536V1.53571C15.0001 1.39363 14.9437 1.25737 14.8432 1.15691C14.7428 1.05644 14.6065 1 14.4644 1H6.96443Z" fill="#002736"/>
<path d="M11.7849 3.72304L11.7859 3.67858C11.7858 3.49407 11.7381 3.31272 11.6473 3.15209C11.5565 2.99146 11.4258 2.857 11.2678 2.76171C11.1098 2.66643 10.9299 2.61357 10.7455 2.60824C10.561 2.6029 10.3783 2.64529 10.2151 2.73129C10.0519 2.81728 9.91361 2.94398 9.81371 3.0991C9.71381 3.25422 9.65566 3.4325 9.64489 3.61669C9.63413 3.80088 9.67111 3.98473 9.75225 4.15044C9.8334 4.31614 9.95596 4.45808 10.1081 4.56251C10.5708 4.12176 11.1547 3.82942 11.7849 3.72304Z" fill="#002736"/>
</svg>
