<svg width="22" height="22" viewBox="0 0 22 22" fill="none" xmlns="http://www.w3.org/2000/svg">
<path d="M17.4167 1.83334H8.25C7.23892 1.83334 6.41667 2.65559 6.41667 3.66668V9.16668H4.58333C3.57225 9.16668 2.75 9.98893 2.75 11V19.25C2.75 19.4931 2.84658 19.7263 3.01849 19.8982C3.19039 20.0701 3.42355 20.1667 3.66667 20.1667H18.3333C18.5764 20.1667 18.8096 20.0701 18.9815 19.8982C19.1534 19.7263 19.25 19.4931 19.25 19.25V3.66668C19.25 2.65559 18.4278 1.83334 17.4167 1.83334ZM4.58333 11H10.0833V18.3333H4.58333V11ZM17.4167 18.3333H11.9167V11C11.9167 9.98893 11.0944 9.16668 10.0833 9.16668H8.25V3.66668H17.4167V18.3333Z" fill="#002736"/>
<path d="M10.0832 5.5H11.9165V7.33333H10.0832V5.5ZM13.7498 5.5H15.5832V7.33333H13.7498V5.5ZM13.7498 9.19508H15.5832V11H13.7498V9.19508ZM13.7498 12.8333H15.5832V14.6667H13.7498V12.8333ZM6.4165 12.8343H8.24984V14.6676H6.4165V12.8343Z" fill="#002736"/>
</svg>
