<svg width="22" height="22" viewBox="0 0 22 22" fill="none" xmlns="http://www.w3.org/2000/svg">
<path d="M19.25 0H2.75C2.02065 0 1.32118 0.289731 0.805456 0.805456C0.289731 1.32118 0 2.02065 0 2.75L0 19.25C0 19.9793 0.289731 20.6788 0.805456 21.1945C1.32118 21.7103 2.02065 22 2.75 22H19.25C19.9793 22 20.6788 21.7103 21.1945 21.1945C21.7103 20.6788 22 19.9793 22 19.25V2.75C22 2.02065 21.7103 1.32118 21.1945 0.805456C20.6788 0.289731 19.9793 0 19.25 0V0ZM1.375 5.30338C1.375 4.653 1.991 4.125 2.75 4.125H19.25C20.009 4.125 20.625 4.653 20.625 5.30338V19.4466C20.625 20.097 20.009 20.625 19.25 20.625H2.75C1.991 20.625 1.375 20.097 1.375 19.4466V5.30338Z" fill="#002736"/>
<path d="M8.9375 9.625C9.30217 9.625 9.65191 9.48013 9.90977 9.22227C10.1676 8.96441 10.3125 8.61467 10.3125 8.25C10.3125 7.88533 10.1676 7.53559 9.90977 7.27773C9.65191 7.01987 9.30217 6.875 8.9375 6.875C8.57283 6.875 8.22309 7.01987 7.96523 7.27773C7.70737 7.53559 7.5625 7.88533 7.5625 8.25C7.5625 8.61467 7.70737 8.96441 7.96523 9.22227C8.22309 9.48013 8.57283 9.625 8.9375 9.625ZM13.0625 9.625C13.4272 9.625 13.7769 9.48013 14.0348 9.22227C14.2926 8.96441 14.4375 8.61467 14.4375 8.25C14.4375 7.88533 14.2926 7.53559 14.0348 7.27773C13.7769 7.01987 13.4272 6.875 13.0625 6.875C12.6978 6.875 12.3481 7.01987 12.0902 7.27773C11.8324 7.53559 11.6875 7.88533 11.6875 8.25C11.6875 8.61467 11.8324 8.96441 12.0902 9.22227C12.3481 9.48013 12.6978 9.625 13.0625 9.625ZM17.1875 9.625C17.5522 9.625 17.9019 9.48013 18.1598 9.22227C18.4176 8.96441 18.5625 8.61467 18.5625 8.25C18.5625 7.88533 18.4176 7.53559 18.1598 7.27773C17.9019 7.01987 17.5522 6.875 17.1875 6.875C16.8228 6.875 16.4731 7.01987 16.2152 7.27773C15.9574 7.53559 15.8125 7.88533 15.8125 8.25C15.8125 8.61467 15.9574 8.96441 16.2152 9.22227C16.4731 9.48013 16.8228 9.625 17.1875 9.625ZM4.8125 13.75C5.17717 13.75 5.52691 13.6051 5.78477 13.3473C6.04263 13.0894 6.1875 12.7397 6.1875 12.375C6.1875 12.0103 6.04263 11.6606 5.78477 11.4027C5.52691 11.1449 5.17717 11 4.8125 11C4.44783 11 4.09809 11.1449 3.84023 11.4027C3.58237 11.6606 3.4375 12.0103 3.4375 12.375C3.4375 12.7397 3.58237 13.0894 3.84023 13.3473C4.09809 13.6051 4.44783 13.75 4.8125 13.75ZM8.9375 13.75C9.30217 13.75 9.65191 13.6051 9.90977 13.3473C10.1676 13.0894 10.3125 12.7397 10.3125 12.375C10.3125 12.0103 10.1676 11.6606 9.90977 11.4027C9.65191 11.1449 9.30217 11 8.9375 11C8.57283 11 8.22309 11.1449 7.96523 11.4027C7.70737 11.6606 7.5625 12.0103 7.5625 12.375C7.5625 12.7397 7.70737 13.0894 7.96523 13.3473C8.22309 13.6051 8.57283 13.75 8.9375 13.75ZM13.0625 13.75C13.4272 13.75 13.7769 13.6051 14.0348 13.3473C14.2926 13.0894 14.4375 12.7397 14.4375 12.375C14.4375 12.0103 14.2926 11.6606 14.0348 11.4027C13.7769 11.1449 13.4272 11 13.0625 11C12.6978 11 12.3481 11.1449 12.0902 11.4027C11.8324 11.6606 11.6875 12.0103 11.6875 12.375C11.6875 12.7397 11.8324 13.0894 12.0902 13.3473C12.3481 13.6051 12.6978 13.75 13.0625 13.75ZM17.1875 13.75C17.5522 13.75 17.9019 13.6051 18.1598 13.3473C18.4176 13.0894 18.5625 12.7397 18.5625 12.375C18.5625 12.0103 18.4176 11.6606 18.1598 11.4027C17.9019 11.1449 17.5522 11 17.1875 11C16.8228 11 16.4731 11.1449 16.2152 11.4027C15.9574 11.6606 15.8125 12.0103 15.8125 12.375C15.8125 12.7397 15.9574 13.0894 16.2152 13.3473C16.4731 13.6051 16.8228 13.75 17.1875 13.75ZM4.8125 17.875C5.17717 17.875 5.52691 17.7301 5.78477 17.4723C6.04263 17.2144 6.1875 16.8647 6.1875 16.5C6.1875 16.1353 6.04263 15.7856 5.78477 15.5277C5.52691 15.2699 5.17717 15.125 4.8125 15.125C4.44783 15.125 4.09809 15.2699 3.84023 15.5277C3.58237 15.7856 3.4375 16.1353 3.4375 16.5C3.4375 16.8647 3.58237 17.2144 3.84023 17.4723C4.09809 17.7301 4.44783 17.875 4.8125 17.875ZM8.9375 17.875C9.30217 17.875 9.65191 17.7301 9.90977 17.4723C10.1676 17.2144 10.3125 16.8647 10.3125 16.5C10.3125 16.1353 10.1676 15.7856 9.90977 15.5277C9.65191 15.2699 9.30217 15.125 8.9375 15.125C8.57283 15.125 8.22309 15.2699 7.96523 15.5277C7.70737 15.7856 7.5625 16.1353 7.5625 16.5C7.5625 16.8647 7.70737 17.2144 7.96523 17.4723C8.22309 17.7301 8.57283 17.875 8.9375 17.875ZM13.0625 17.875C13.4272 17.875 13.7769 17.7301 14.0348 17.4723C14.2926 17.2144 14.4375 16.8647 14.4375 16.5C14.4375 16.1353 14.2926 15.7856 14.0348 15.5277C13.7769 15.2699 13.4272 15.125 13.0625 15.125C12.6978 15.125 12.3481 15.2699 12.0902 15.5277C11.8324 15.7856 11.6875 16.1353 11.6875 16.5C11.6875 16.8647 11.8324 17.2144 12.0902 17.4723C12.3481 17.7301 12.6978 17.875 13.0625 17.875Z" fill="#002736"/>
</svg>
