<svg width="20" height="20" viewBox="0 0 20 20" fill="none" xmlns="http://www.w3.org/2000/svg">
<path d="M17.5 0H2.5C1.83696 0 1.20107 0.263392 0.732233 0.732233C0.263392 1.20107 0 1.83696 0 2.5L0 17.5C0 18.163 0.263392 18.7989 0.732233 19.2678C1.20107 19.7366 1.83696 20 2.5 20H17.5C18.163 20 18.7989 19.7366 19.2678 19.2678C19.7366 18.7989 20 18.163 20 17.5V2.5C20 1.83696 19.7366 1.20107 19.2678 0.732233C18.7989 0.263392 18.163 0 17.5 0V0ZM1.25 4.82125C1.25 4.23 1.81 3.75 2.5 3.75H17.5C18.19 3.75 18.75 4.23 18.75 4.82125V17.6787C18.75 18.27 18.19 18.75 17.5 18.75H2.5C1.81 18.75 1.25 18.27 1.25 17.6787V4.82125Z" fill="#030303"/>
<path d="M8.125 8.75C8.45652 8.75 8.77446 8.6183 9.00888 8.38388C9.2433 8.14946 9.375 7.83152 9.375 7.5C9.375 7.16848 9.2433 6.85054 9.00888 6.61612C8.77446 6.3817 8.45652 6.25 8.125 6.25C7.79348 6.25 7.47554 6.3817 7.24112 6.61612C7.0067 6.85054 6.875 7.16848 6.875 7.5C6.875 7.83152 7.0067 8.14946 7.24112 8.38388C7.47554 8.6183 7.79348 8.75 8.125 8.75ZM11.875 8.75C12.2065 8.75 12.5245 8.6183 12.7589 8.38388C12.9933 8.14946 13.125 7.83152 13.125 7.5C13.125 7.16848 12.9933 6.85054 12.7589 6.61612C12.5245 6.3817 12.2065 6.25 11.875 6.25C11.5435 6.25 11.2255 6.3817 10.9911 6.61612C10.7567 6.85054 10.625 7.16848 10.625 7.5C10.625 7.83152 10.7567 8.14946 10.9911 8.38388C11.2255 8.6183 11.5435 8.75 11.875 8.75V8.75ZM15.625 8.75C15.9565 8.75 16.2745 8.6183 16.5089 8.38388C16.7433 8.14946 16.875 7.83152 16.875 7.5C16.875 7.16848 16.7433 6.85054 16.5089 6.61612C16.2745 6.3817 15.9565 6.25 15.625 6.25C15.2935 6.25 14.9755 6.3817 14.7411 6.61612C14.5067 6.85054 14.375 7.16848 14.375 7.5C14.375 7.83152 14.5067 8.14946 14.7411 8.38388C14.9755 8.6183 15.2935 8.75 15.625 8.75V8.75ZM4.375 12.5C4.70652 12.5 5.02446 12.3683 5.25888 12.1339C5.4933 11.8995 5.625 11.5815 5.625 11.25C5.625 10.9185 5.4933 10.6005 5.25888 10.3661C5.02446 10.1317 4.70652 10 4.375 10C4.04348 10 3.72554 10.1317 3.49112 10.3661C3.2567 10.6005 3.125 10.9185 3.125 11.25C3.125 11.5815 3.2567 11.8995 3.49112 12.1339C3.72554 12.3683 4.04348 12.5 4.375 12.5V12.5ZM8.125 12.5C8.45652 12.5 8.77446 12.3683 9.00888 12.1339C9.2433 11.8995 9.375 11.5815 9.375 11.25C9.375 10.9185 9.2433 10.6005 9.00888 10.3661C8.77446 10.1317 8.45652 10 8.125 10C7.79348 10 7.47554 10.1317 7.24112 10.3661C7.0067 10.6005 6.875 10.9185 6.875 11.25C6.875 11.5815 7.0067 11.8995 7.24112 12.1339C7.47554 12.3683 7.79348 12.5 8.125 12.5ZM11.875 12.5C12.2065 12.5 12.5245 12.3683 12.7589 12.1339C12.9933 11.8995 13.125 11.5815 13.125 11.25C13.125 10.9185 12.9933 10.6005 12.7589 10.3661C12.5245 10.1317 12.2065 10 11.875 10C11.5435 10 11.2255 10.1317 10.9911 10.3661C10.7567 10.6005 10.625 10.9185 10.625 11.25C10.625 11.5815 10.7567 11.8995 10.9911 12.1339C11.2255 12.3683 11.5435 12.5 11.875 12.5V12.5ZM15.625 12.5C15.9565 12.5 16.2745 12.3683 16.5089 12.1339C16.7433 11.8995 16.875 11.5815 16.875 11.25C16.875 10.9185 16.7433 10.6005 16.5089 10.3661C16.2745 10.1317 15.9565 10 15.625 10C15.2935 10 14.9755 10.1317 14.7411 10.3661C14.5067 10.6005 14.375 10.9185 14.375 11.25C14.375 11.5815 14.5067 11.8995 14.7411 12.1339C14.9755 12.3683 15.2935 12.5 15.625 12.5V12.5ZM4.375 16.25C4.70652 16.25 5.02446 16.1183 5.25888 15.8839C5.4933 15.6495 5.625 15.3315 5.625 15C5.625 14.6685 5.4933 14.3505 5.25888 14.1161C5.02446 13.8817 4.70652 13.75 4.375 13.75C4.04348 13.75 3.72554 13.8817 3.49112 14.1161C3.2567 14.3505 3.125 14.6685 3.125 15C3.125 15.3315 3.2567 15.6495 3.49112 15.8839C3.72554 16.1183 4.04348 16.25 4.375 16.25V16.25ZM8.125 16.25C8.45652 16.25 8.77446 16.1183 9.00888 15.8839C9.2433 15.6495 9.375 15.3315 9.375 15C9.375 14.6685 9.2433 14.3505 9.00888 14.1161C8.77446 13.8817 8.45652 13.75 8.125 13.75C7.79348 13.75 7.47554 13.8817 7.24112 14.1161C7.0067 14.3505 6.875 14.6685 6.875 15C6.875 15.3315 7.0067 15.6495 7.24112 15.8839C7.47554 16.1183 7.79348 16.25 8.125 16.25ZM11.875 16.25C12.2065 16.25 12.5245 16.1183 12.7589 15.8839C12.9933 15.6495 13.125 15.3315 13.125 15C13.125 14.6685 12.9933 14.3505 12.7589 14.1161C12.5245 13.8817 12.2065 13.75 11.875 13.75C11.5435 13.75 11.2255 13.8817 10.9911 14.1161C10.7567 14.3505 10.625 14.6685 10.625 15C10.625 15.3315 10.7567 15.6495 10.9911 15.8839C11.2255 16.1183 11.5435 16.25 11.875 16.25V16.25Z" fill="#030303"/>
</svg>
