<svg width="22" height="22" viewBox="0 0 22 22" fill="none" xmlns="http://www.w3.org/2000/svg">
<path fill-rule="evenodd" clip-rule="evenodd" d="M6.4165 3.66667C6.17339 3.66667 5.94023 3.76324 5.76832 3.93515C5.59641 4.10706 5.49984 4.34022 5.49984 4.58333V17.4167C5.49984 17.6598 5.59641 17.8929 5.76832 18.0648C5.94023 18.2368 6.17339 18.3333 6.4165 18.3333H15.5832C15.8263 18.3333 16.0594 18.2368 16.2314 18.0648C16.4033 17.8929 16.4998 17.6598 16.4998 17.4167L16.4998 8.62969L11.5369 3.66676L6.4165 3.66667ZM4.47196 2.63879C4.98769 2.12306 5.68716 1.83333 6.4165 1.83333H11.537C12.0231 1.83344 12.4895 2.02662 12.8333 2.3704M12.8333 2.3704L17.796 7.33314C17.796 7.33317 17.796 7.3331 17.796 7.33314C18.1398 7.67687 18.3331 8.14316 18.3332 8.6293V17.4167C18.3332 18.146 18.0434 18.8455 17.5277 19.3612C17.012 19.8769 16.3125 20.1667 15.5832 20.1667H6.4165C5.68716 20.1667 4.98768 19.8769 4.47196 19.3612C3.95624 18.8455 3.6665 18.146 3.6665 17.4167V4.58333C3.6665 3.85399 3.95624 3.15451 4.47196 2.63879M10.9998 8.25C11.5061 8.25 11.9165 8.66041 11.9165 9.16667V12.4536L13.1017 11.2685C13.4596 10.9105 14.04 10.9105 14.398 11.2685C14.756 11.6265 14.756 12.2069 14.398 12.5648L11.6486 15.3143C11.6464 15.3165 11.6442 15.3186 11.642 15.3208C11.4772 15.4826 11.2516 15.5826 11.0026 15.5833C11.0017 15.5833 11.0008 15.5833 10.9998 15.5833C10.9989 15.5833 10.998 15.5833 10.9971 15.5833C10.8738 15.583 10.7562 15.5583 10.649 15.5138C10.5433 15.4701 10.4441 15.4057 10.3577 15.3208C10.3555 15.3186 10.3533 15.3165 10.3511 15.3143L7.60166 12.5648C7.24368 12.2069 7.24368 11.6265 7.60166 11.2685C7.95964 10.9105 8.54004 10.9105 8.89802 11.2685L10.0832 12.4536V9.16667C10.0832 8.66041 10.4936 8.25 10.9998 8.25Z" fill="#002736"/>
</svg>
