<svg width="18" height="18" viewBox="0 0 18 18" fill="none" xmlns="http://www.w3.org/2000/svg">
<path fill-rule="evenodd" clip-rule="evenodd" d="M1.85178 5.22675C1.90403 5.17436 1.9661 5.1328 2.03444 5.10445C2.10278 5.07609 2.17604 5.06149 2.25003 5.06149C2.32402 5.06149 2.39728 5.07609 2.46562 5.10445C2.53396 5.1328 2.59603 5.17436 2.64828 5.22675L9.00003 11.5796L15.3518 5.22675C15.4041 5.17445 15.4662 5.13296 15.5345 5.10466C15.6028 5.07636 15.6761 5.06179 15.75 5.06179C15.824 5.06179 15.8972 5.07636 15.9656 5.10466C16.0339 5.13296 16.096 5.17445 16.1483 5.22675C16.2006 5.27905 16.2421 5.34113 16.2704 5.40947C16.2987 5.4778 16.3132 5.55104 16.3132 5.625C16.3132 5.69896 16.2987 5.7722 16.2704 5.84053C16.2421 5.90886 16.2006 5.97095 16.1483 6.02325L9.39828 12.7732C9.34603 12.8256 9.28395 12.8672 9.21562 12.8955C9.14728 12.9239 9.07402 12.9385 9.00003 12.9385C8.92604 12.9385 8.85278 12.9239 8.78444 12.8955C8.7161 12.8672 8.65403 12.8256 8.60178 12.7732L1.85178 6.02325C1.7994 5.971 1.75783 5.90892 1.72948 5.84059C1.70112 5.77225 1.68652 5.69899 1.68652 5.625C1.68652 5.55101 1.70112 5.47775 1.72948 5.40941C1.75783 5.34107 1.7994 5.279 1.85178 5.22675Z" fill="#002736"/>
</svg>
