<svg width="22" height="22" viewBox="0 0 22 22" fill="none" xmlns="http://www.w3.org/2000/svg">
<path d="M21.3153 2.6675C21.4438 2.79637 21.516 2.97091 21.516 3.15287C21.516 3.33484 21.4438 3.50938 21.3153 3.63825L19.8812 5.07375L17.1312 2.32375L18.5653 0.888249C18.6943 0.759363 18.8691 0.686958 19.0514 0.686958C19.2337 0.686958 19.4085 0.759363 19.5375 0.888249L21.3153 2.66612V2.6675ZM18.9091 6.0445L16.1591 3.2945L6.79122 12.6637C6.71555 12.7394 6.65858 12.8317 6.62485 12.9332L5.51797 16.2525C5.4979 16.313 5.49505 16.3779 5.50974 16.44C5.52443 16.502 5.55609 16.5587 5.60117 16.6038C5.64625 16.6489 5.70298 16.6805 5.76502 16.6952C5.82706 16.7099 5.89196 16.7071 5.95247 16.687L9.27172 15.5801C9.37315 15.5468 9.46542 15.4903 9.54122 15.4151L18.9091 6.04587V6.0445Z" fill="black"/>
<path fill-rule="evenodd" clip-rule="evenodd" d="M1.375 18.5625C1.375 19.1095 1.5923 19.6341 1.97909 20.0209C2.36589 20.4077 2.89049 20.625 3.4375 20.625H18.5625C19.1095 20.625 19.6341 20.4077 20.0209 20.0209C20.4077 19.6341 20.625 19.1095 20.625 18.5625V10.3125C20.625 10.1302 20.5526 9.9553 20.4236 9.82636C20.2947 9.69743 20.1198 9.625 19.9375 9.625C19.7552 9.625 19.5803 9.69743 19.4514 9.82636C19.3224 9.9553 19.25 10.1302 19.25 10.3125V18.5625C19.25 18.7448 19.1776 18.9197 19.0486 19.0486C18.9197 19.1776 18.7448 19.25 18.5625 19.25H3.4375C3.25516 19.25 3.0803 19.1776 2.95136 19.0486C2.82243 18.9197 2.75 18.7448 2.75 18.5625V3.4375C2.75 3.25516 2.82243 3.0803 2.95136 2.95136C3.0803 2.82243 3.25516 2.75 3.4375 2.75H12.375C12.5573 2.75 12.7322 2.67757 12.8611 2.54864C12.9901 2.4197 13.0625 2.24484 13.0625 2.0625C13.0625 1.88016 12.9901 1.7053 12.8611 1.57636C12.7322 1.44743 12.5573 1.375 12.375 1.375H3.4375C2.89049 1.375 2.36589 1.5923 1.97909 1.97909C1.5923 2.36589 1.375 2.89049 1.375 3.4375V18.5625Z" fill="black"/>
</svg>
