<svg width="22" height="22" viewBox="0 0 22 22" fill="none" xmlns="http://www.w3.org/2000/svg">
<path d="M20.2425 10.4457C18.2058 6.15527 15.1271 3.99609 10.9999 3.99609C6.87064 3.99609 3.79408 6.15527 1.75736 10.4479C1.67567 10.6208 1.6333 10.8098 1.6333 11.0011C1.6333 11.1924 1.67567 11.3813 1.75736 11.5543C3.79408 15.8447 6.87279 18.0039 10.9999 18.0039C15.1292 18.0039 18.2058 15.8447 20.2425 11.5521C20.408 11.2041 20.408 10.8002 20.2425 10.4457ZM10.9999 16.457C7.53451 16.457 4.99721 14.6996 3.20756 11C4.99721 7.30039 7.53451 5.54297 10.9999 5.54297C14.4654 5.54297 17.0027 7.30039 18.7923 11C17.0048 14.6996 14.4675 16.457 10.9999 16.457ZM10.914 7.21875C8.82572 7.21875 7.13275 8.91172 7.13275 11C7.13275 13.0883 8.82572 14.7812 10.914 14.7812C13.0023 14.7812 14.6953 13.0883 14.6953 11C14.6953 8.91172 13.0023 7.21875 10.914 7.21875ZM10.914 13.4062C9.58412 13.4062 8.50775 12.3299 8.50775 11C8.50775 9.67012 9.58412 8.59375 10.914 8.59375C12.2439 8.59375 13.3203 9.67012 13.3203 11C13.3203 12.3299 12.2439 13.4062 10.914 13.4062Z" fill="#002736"/>
</svg>
