<svg width="20" height="20" viewBox="0 0 20 20" fill="none" xmlns="http://www.w3.org/2000/svg">
<path d="M18.4023 9.49609C17.7157 8.04961 16.8987 6.86992 15.9512 5.95703L14.9574 6.95078C15.7678 7.72519 16.4736 8.73828 17.084 10C15.459 13.3633 13.1523 14.9609 9.99999 14.9609C9.05377 14.9609 8.18222 14.8152 7.38534 14.5238L6.30859 15.6006C7.41536 16.1117 8.64583 16.3672 9.99999 16.3672C13.7539 16.3672 16.5547 14.4121 18.4023 10.502C18.4766 10.3447 18.5151 10.1729 18.5151 9.99902C18.5151 9.82511 18.4766 9.65335 18.4023 9.49609V9.49609ZM17.1607 3.23359L16.3281 2.4C16.3136 2.38547 16.2964 2.37395 16.2774 2.36608C16.2584 2.35822 16.2381 2.35417 16.2176 2.35417C16.197 2.35417 16.1767 2.35822 16.1577 2.36608C16.1388 2.37395 16.1215 2.38547 16.107 2.4L13.9709 4.53515C12.7932 3.93359 11.4695 3.63281 9.99999 3.63281C6.24609 3.63281 3.4453 5.58789 1.59765 9.49804C1.52338 9.6553 1.48486 9.82706 1.48486 10.001C1.48486 10.1749 1.52338 10.3466 1.59765 10.5039C2.3358 12.0586 3.22447 13.3048 4.26366 14.2424L2.19687 16.3086C2.16759 16.3379 2.15114 16.3776 2.15114 16.419C2.15114 16.4605 2.16759 16.5002 2.19687 16.5295L3.03066 17.3633C3.05995 17.3926 3.09968 17.409 3.1411 17.409C3.18253 17.409 3.22225 17.3926 3.25155 17.3633L17.1607 3.45469C17.1753 3.44017 17.1868 3.42294 17.1947 3.40397C17.2025 3.385 17.2066 3.36467 17.2066 3.34414C17.2066 3.3236 17.2025 3.30327 17.1947 3.2843C17.1868 3.26534 17.1753 3.2481 17.1607 3.23359ZM2.91601 10C4.54296 6.63672 6.8496 5.03906 9.99999 5.03906C11.0652 5.03906 12.0338 5.22187 12.9125 5.59355L11.5394 6.9666C10.8892 6.61965 10.1446 6.49089 9.41563 6.59931C8.68662 6.70772 8.01176 7.04758 7.4906 7.56873C6.96944 8.08989 6.62959 8.76475 6.52117 9.49376C6.41276 10.2228 6.54152 10.9673 6.88847 11.6176L5.25917 13.2469C4.35741 12.451 3.58007 11.3727 2.91601 10ZM7.73437 10C7.73471 9.65559 7.81629 9.31612 7.97247 9.00917C8.12866 8.70222 8.35505 8.43643 8.63326 8.23341C8.91146 8.03039 9.23363 7.89586 9.5736 7.84074C9.91357 7.78563 10.2617 7.81148 10.5898 7.91621L7.83808 10.668C7.76911 10.452 7.73412 10.2267 7.73437 10V10Z" fill="#030303"/>
<path d="M9.92178 12.1875C9.8542 12.1875 9.7876 12.1844 9.72158 12.1783L8.68994 13.21C9.31043 13.4476 9.98647 13.5004 10.6363 13.362C11.2862 13.2236 11.882 12.8999 12.3519 12.4301C12.8217 11.9603 13.1454 11.3644 13.2838 10.7145C13.4222 10.0647 13.3694 9.38865 13.1317 8.76816L12.1001 9.7998C12.1062 9.86581 12.1093 9.93242 12.1093 9.99999C12.1094 10.2873 12.053 10.5718 11.9431 10.8373C11.8332 11.1028 11.6721 11.344 11.4689 11.5471C11.2658 11.7503 11.0245 11.9114 10.7591 12.0213C10.4936 12.1312 10.2091 12.1876 9.92178 12.1875V12.1875Z" fill="#030303"/>
</svg>
