<svg width="22" height="22" viewBox="0 0 22 22" fill="none" xmlns="http://www.w3.org/2000/svg">
<path d="M20.2425 10.4457C19.4873 8.85458 18.5885 7.55692 17.5462 6.55274L16.4531 7.64587C17.3445 8.49772 18.1209 9.61212 18.7923 11C17.0048 14.6996 14.4675 16.457 10.9999 16.457C9.9591 16.457 9.00039 16.2968 8.12383 15.9762L6.93939 17.1607C8.15684 17.7228 9.51036 18.0039 10.9999 18.0039C15.1292 18.0039 18.2101 15.8533 20.2425 11.5522C20.3242 11.3792 20.3666 11.1902 20.3666 10.9989C20.3666 10.8076 20.3242 10.6187 20.2425 10.4457ZM18.8768 3.55696L17.9609 2.64001C17.9449 2.62403 17.926 2.61135 17.9051 2.6027C17.8842 2.59405 17.8619 2.5896 17.8393 2.5896C17.8167 2.5896 17.7943 2.59405 17.7735 2.6027C17.7526 2.61135 17.7336 2.62403 17.7177 2.64001L15.3679 4.98868C14.0724 4.32696 12.6164 3.9961 10.9999 3.9961C6.87065 3.9961 3.78979 6.14669 1.75736 10.4479C1.67567 10.6208 1.6333 10.8098 1.6333 11.0011C1.6333 11.1924 1.67567 11.3813 1.75736 11.5543C2.56933 13.2645 3.54687 14.6352 4.68998 15.6666L2.4165 17.9395C2.3843 17.9717 2.3662 18.0154 2.3662 18.061C2.3662 18.1065 2.3843 18.1502 2.4165 18.1825L3.33367 19.0996C3.3659 19.1318 3.4096 19.1499 3.45517 19.1499C3.50073 19.1499 3.54443 19.1318 3.57666 19.0996L18.8768 3.80016C18.8927 3.7842 18.9054 3.76525 18.9141 3.74438C18.9227 3.72352 18.9272 3.70115 18.9272 3.67856C18.9272 3.65598 18.9227 3.63361 18.9141 3.61275C18.9054 3.59188 18.8927 3.57292 18.8768 3.55696ZM3.20756 11C4.99721 7.3004 7.53451 5.54298 10.9999 5.54298C12.1717 5.54298 13.2371 5.74407 14.2037 6.15292L12.6933 7.66327C11.9781 7.28163 11.159 7.13999 10.3571 7.25925C9.55523 7.37851 8.81288 7.75234 8.23961 8.32562C7.66634 8.89889 7.2925 9.64123 7.17324 10.4431C7.05399 11.2451 7.19562 12.0641 7.57727 12.7793L5.78504 14.5716C4.79311 13.6961 3.93803 12.5099 3.20756 11ZM8.50775 11C8.50813 10.6212 8.59787 10.2477 8.76967 9.9101C8.94148 9.57245 9.19051 9.28009 9.49653 9.05677C9.80256 8.83344 10.1569 8.68546 10.5309 8.62483C10.9049 8.5642 11.2879 8.59264 11.6488 8.70784L8.62184 11.7348C8.54597 11.4972 8.50748 11.2494 8.50775 11Z" fill="#002736"/>
<path d="M10.9141 13.4063C10.8398 13.4063 10.7665 13.4028 10.6939 13.3962L9.55908 14.531C10.2416 14.7924 10.9853 14.8504 11.7001 14.6982C12.415 14.546 13.0704 14.1899 13.5872 13.6731C14.104 13.1563 14.4601 12.5009 14.6123 11.786C14.7645 11.0712 14.7064 10.3275 14.4451 9.64499L13.3103 10.7798C13.3169 10.8524 13.3204 10.9257 13.3204 11C13.3205 11.316 13.2584 11.629 13.1375 11.921C13.0167 12.2131 12.8394 12.4784 12.616 12.7019C12.3925 12.9253 12.1272 13.1026 11.8351 13.2234C11.5431 13.3443 11.2301 13.4064 10.9141 13.4063Z" fill="#002736"/>
</svg>
