<svg width="22" height="22" viewBox="0 0 22 22" fill="none" xmlns="http://www.w3.org/2000/svg">
<path fill-rule="evenodd" clip-rule="evenodd" d="M3.66667 11.9167C4.17293 11.9167 4.58333 12.3271 4.58333 12.8333V19.25C4.58333 19.7563 4.17293 20.1667 3.66667 20.1667C3.16041 20.1667 2.75 19.7563 2.75 19.25V12.8333C2.75 12.3271 3.16041 11.9167 3.66667 11.9167Z" fill="#002736"/>
<path fill-rule="evenodd" clip-rule="evenodd" d="M3.66667 1.83333C4.17293 1.83333 4.58333 2.24373 4.58333 2.74999V9.16666C4.58333 9.67292 4.17293 10.0833 3.66667 10.0833C3.16041 10.0833 2.75 9.67292 2.75 9.16666V2.74999C2.75 2.24373 3.16041 1.83333 3.66667 1.83333Z" fill="#002736"/>
<path fill-rule="evenodd" clip-rule="evenodd" d="M11.0002 10.0833C11.5064 10.0833 11.9168 10.4937 11.9168 11V19.25C11.9168 19.7563 11.5064 20.1667 11.0002 20.1667C10.4939 20.1667 10.0835 19.7563 10.0835 19.25V11C10.0835 10.4937 10.4939 10.0833 11.0002 10.0833Z" fill="#002736"/>
<path fill-rule="evenodd" clip-rule="evenodd" d="M11.0002 1.83333C11.5064 1.83333 11.9168 2.24373 11.9168 2.75V7.33333C11.9168 7.83959 11.5064 8.25 11.0002 8.25C10.4939 8.25 10.0835 7.83959 10.0835 7.33333V2.75C10.0835 2.24373 10.4939 1.83333 11.0002 1.83333Z" fill="#002736"/>
<path fill-rule="evenodd" clip-rule="evenodd" d="M18.3332 13.75C18.8394 13.75 19.2498 14.1604 19.2498 14.6667V19.25C19.2498 19.7563 18.8394 20.1667 18.3332 20.1667C17.8269 20.1667 17.4165 19.7563 17.4165 19.25V14.6667C17.4165 14.1604 17.8269 13.75 18.3332 13.75Z" fill="#002736"/>
<path fill-rule="evenodd" clip-rule="evenodd" d="M18.3332 1.83333C18.8394 1.83333 19.2498 2.24373 19.2498 2.75V11C19.2498 11.5063 18.8394 11.9167 18.3332 11.9167C17.8269 11.9167 17.4165 11.5063 17.4165 11V2.75C17.4165 2.24373 17.8269 1.83333 18.3332 1.83333Z" fill="#002736"/>
<path fill-rule="evenodd" clip-rule="evenodd" d="M0 12.8333C0 12.3271 0.410406 11.9167 0.916666 11.9167H6.41667C6.92293 11.9167 7.33333 12.3271 7.33333 12.8333C7.33333 13.3396 6.92293 13.75 6.41667 13.75H0.916666C0.410406 13.75 0 13.3396 0 12.8333Z" fill="#002736"/>
<path fill-rule="evenodd" clip-rule="evenodd" d="M7.3335 7.33334C7.3335 6.82708 7.7439 6.41667 8.25016 6.41667H13.7502C14.2564 6.41667 14.6668 6.82708 14.6668 7.33334C14.6668 7.8396 14.2564 8.25 13.7502 8.25H8.25016C7.7439 8.25 7.3335 7.8396 7.3335 7.33334Z" fill="#002736"/>
<path fill-rule="evenodd" clip-rule="evenodd" d="M14.6665 14.6667C14.6665 14.1604 15.0769 13.75 15.5832 13.75H21.0832C21.5894 13.75 21.9998 14.1604 21.9998 14.6667C21.9998 15.1729 21.5894 15.5833 21.0832 15.5833H15.5832C15.0769 15.5833 14.6665 15.1729 14.6665 14.6667Z" fill="#002736"/>
</svg>
