<svg width="22" height="22" viewBox="0 0 22 22" fill="none" xmlns="http://www.w3.org/2000/svg">
<path fill-rule="evenodd" clip-rule="evenodd" d="M10.4374 1.10977C10.7684 0.852307 11.2319 0.852307 11.5629 1.10977L19.8129 7.52643C20.0362 7.7001 20.1668 7.96713 20.1668 8.25001V18.3333C20.1668 19.0627 19.8771 19.7622 19.3614 20.2779C18.8456 20.7936 18.1462 21.0833 17.4168 21.0833H4.5835C3.85415 21.0833 3.15468 20.7936 2.63895 20.2779C2.12323 19.7622 1.8335 19.0627 1.8335 18.3333V8.25001C1.8335 7.96713 1.9641 7.7001 2.18738 7.52643L10.4374 1.10977ZM3.66683 8.69833V18.3333C3.66683 18.5765 3.76341 18.8096 3.93531 18.9815C4.10722 19.1534 4.34038 19.25 4.5835 19.25H17.4168C17.6599 19.25 17.8931 19.1534 18.065 18.9815C18.2369 18.8096 18.3335 18.5765 18.3335 18.3333V8.69833L11.0002 2.99463L3.66683 8.69833Z" fill="#002736"/>
<path fill-rule="evenodd" clip-rule="evenodd" d="M7.3335 11C7.3335 10.4937 7.7439 10.0833 8.25016 10.0833H13.7502C14.2564 10.0833 14.6668 10.4937 14.6668 11V20.1667C14.6668 20.6729 14.2564 21.0833 13.7502 21.0833C13.2439 21.0833 12.8335 20.6729 12.8335 20.1667V11.9167H9.16683V20.1667C9.16683 20.6729 8.75642 21.0833 8.25016 21.0833C7.7439 21.0833 7.3335 20.6729 7.3335 20.1667V11Z" fill="#002736"/>
</svg>
