<svg width="22" height="22" viewBox="0 0 22 22" fill="none" xmlns="http://www.w3.org/2000/svg">
<path d="M4.8125 0C4.99484 0 5.1697 0.0724328 5.29864 0.201364C5.42757 0.330295 5.5 0.505164 5.5 0.6875V1.375H16.5V0.6875C16.5 0.505164 16.5724 0.330295 16.7014 0.201364C16.8303 0.0724328 17.0052 0 17.1875 0C17.3698 0 17.5447 0.0724328 17.6736 0.201364C17.8026 0.330295 17.875 0.505164 17.875 0.6875V1.375H19.25C19.9793 1.375 20.6788 1.66473 21.1945 2.18046C21.7103 2.69618 22 3.39565 22 4.125V19.25C22 19.9793 21.7103 20.6788 21.1945 21.1945C20.6788 21.7103 19.9793 22 19.25 22H2.75C2.02065 22 1.32118 21.7103 0.805456 21.1945C0.289731 20.6788 0 19.9793 0 19.25V4.125C0 3.39565 0.289731 2.69618 0.805456 2.18046C1.32118 1.66473 2.02065 1.375 2.75 1.375H4.125V0.6875C4.125 0.505164 4.19743 0.330295 4.32636 0.201364C4.4553 0.0724328 4.63016 0 4.8125 0V0ZM2.75 2.75C2.38533 2.75 2.03559 2.89487 1.77773 3.15273C1.51987 3.41059 1.375 3.76033 1.375 4.125V19.25C1.375 19.6147 1.51987 19.9644 1.77773 20.2223C2.03559 20.4801 2.38533 20.625 2.75 20.625H19.25C19.6147 20.625 19.9644 20.4801 20.2223 20.2223C20.4801 19.9644 20.625 19.6147 20.625 19.25V4.125C20.625 3.76033 20.4801 3.41059 20.2223 3.15273C19.9644 2.89487 19.6147 2.75 19.25 2.75H2.75Z" fill="#002736"/>
<path d="M3.4375 5.5C3.4375 5.31766 3.50993 5.1428 3.63886 5.01386C3.7678 4.88493 3.94266 4.8125 4.125 4.8125H17.875C18.0573 4.8125 18.2322 4.88493 18.3611 5.01386C18.4901 5.1428 18.5625 5.31766 18.5625 5.5V6.875C18.5625 7.05734 18.4901 7.2322 18.3611 7.36114C18.2322 7.49007 18.0573 7.5625 17.875 7.5625H4.125C3.94266 7.5625 3.7678 7.49007 3.63886 7.36114C3.50993 7.2322 3.4375 7.05734 3.4375 6.875V5.5ZM15.125 10.3125C15.125 10.1302 15.1974 9.9553 15.3264 9.82636C15.4553 9.69743 15.6302 9.625 15.8125 9.625H17.1875C17.3698 9.625 17.5447 9.69743 17.6736 9.82636C17.8026 9.9553 17.875 10.1302 17.875 10.3125V11.6875C17.875 11.8698 17.8026 12.0447 17.6736 12.1736C17.5447 12.3026 17.3698 12.375 17.1875 12.375H15.8125C15.6302 12.375 15.4553 12.3026 15.3264 12.1736C15.1974 12.0447 15.125 11.8698 15.125 11.6875V10.3125ZM11 10.3125C11 10.1302 11.0724 9.9553 11.2014 9.82636C11.3303 9.69743 11.5052 9.625 11.6875 9.625H13.0625C13.2448 9.625 13.4197 9.69743 13.5486 9.82636C13.6776 9.9553 13.75 10.1302 13.75 10.3125V11.6875C13.75 11.8698 13.6776 12.0447 13.5486 12.1736C13.4197 12.3026 13.2448 12.375 13.0625 12.375H11.6875C11.5052 12.375 11.3303 12.3026 11.2014 12.1736C11.0724 12.0447 11 11.8698 11 11.6875V10.3125ZM4.125 14.4375C4.125 14.2552 4.19743 14.0803 4.32636 13.9514C4.4553 13.8224 4.63016 13.75 4.8125 13.75H6.1875C6.36984 13.75 6.5447 13.8224 6.67364 13.9514C6.80257 14.0803 6.875 14.2552 6.875 14.4375V15.8125C6.875 15.9948 6.80257 16.1697 6.67364 16.2986C6.5447 16.4276 6.36984 16.5 6.1875 16.5H4.8125C4.63016 16.5 4.4553 16.4276 4.32636 16.2986C4.19743 16.1697 4.125 15.9948 4.125 15.8125V14.4375ZM8.25 14.4375C8.25 14.2552 8.32243 14.0803 8.45136 13.9514C8.5803 13.8224 8.75516 13.75 8.9375 13.75H10.3125C10.4948 13.75 10.6697 13.8224 10.7986 13.9514C10.9276 14.0803 11 14.2552 11 14.4375V15.8125C11 15.9948 10.9276 16.1697 10.7986 16.2986C10.6697 16.4276 10.4948 16.5 10.3125 16.5H8.9375C8.75516 16.5 8.5803 16.4276 8.45136 16.2986C8.32243 16.1697 8.25 15.9948 8.25 15.8125V14.4375Z" fill="#002736"/>
</svg>
