<svg width="20" height="20" viewBox="0 0 20 20" fill="none" xmlns="http://www.w3.org/2000/svg">
<path d="M4.375 0C4.54076 0 4.69973 0.065848 4.81694 0.183058C4.93415 0.300269 5 0.45924 5 0.625V1.25H15V0.625C15 0.45924 15.0658 0.300269 15.1831 0.183058C15.3003 0.065848 15.4592 0 15.625 0C15.7908 0 15.9497 0.065848 16.0669 0.183058C16.1842 0.300269 16.25 0.45924 16.25 0.625V1.25H17.5C18.163 1.25 18.7989 1.51339 19.2678 1.98223C19.7366 2.45107 20 3.08696 20 3.75V17.5C20 18.163 19.7366 18.7989 19.2678 19.2678C18.7989 19.7366 18.163 20 17.5 20H2.5C1.83696 20 1.20107 19.7366 0.732233 19.2678C0.263392 18.7989 0 18.163 0 17.5V3.75C0 3.08696 0.263392 2.45107 0.732233 1.98223C1.20107 1.51339 1.83696 1.25 2.5 1.25H3.75V0.625C3.75 0.45924 3.81585 0.300269 3.93306 0.183058C4.05027 0.065848 4.20924 0 4.375 0V0ZM2.5 2.5C2.16848 2.5 1.85054 2.6317 1.61612 2.86612C1.3817 3.10054 1.25 3.41848 1.25 3.75V17.5C1.25 17.8315 1.3817 18.1495 1.61612 18.3839C1.85054 18.6183 2.16848 18.75 2.5 18.75H17.5C17.8315 18.75 18.1495 18.6183 18.3839 18.3839C18.6183 18.1495 18.75 17.8315 18.75 17.5V3.75C18.75 3.41848 18.6183 3.10054 18.3839 2.86612C18.1495 2.6317 17.8315 2.5 17.5 2.5H2.5Z" fill="#030303"/>
<path d="M3.125 5C3.125 4.83424 3.19085 4.67527 3.30806 4.55806C3.42527 4.44085 3.58424 4.375 3.75 4.375H16.25C16.4158 4.375 16.5747 4.44085 16.6919 4.55806C16.8092 4.67527 16.875 4.83424 16.875 5V6.25C16.875 6.41576 16.8092 6.57473 16.6919 6.69194C16.5747 6.80915 16.4158 6.875 16.25 6.875H3.75C3.58424 6.875 3.42527 6.80915 3.30806 6.69194C3.19085 6.57473 3.125 6.41576 3.125 6.25V5ZM13.75 9.375C13.75 9.20924 13.8158 9.05027 13.9331 8.93306C14.0503 8.81585 14.2092 8.75 14.375 8.75H15.625C15.7908 8.75 15.9497 8.81585 16.0669 8.93306C16.1842 9.05027 16.25 9.20924 16.25 9.375V10.625C16.25 10.7908 16.1842 10.9497 16.0669 11.0669C15.9497 11.1842 15.7908 11.25 15.625 11.25H14.375C14.2092 11.25 14.0503 11.1842 13.9331 11.0669C13.8158 10.9497 13.75 10.7908 13.75 10.625V9.375ZM10 9.375C10 9.20924 10.0658 9.05027 10.1831 8.93306C10.3003 8.81585 10.4592 8.75 10.625 8.75H11.875C12.0408 8.75 12.1997 8.81585 12.3169 8.93306C12.4342 9.05027 12.5 9.20924 12.5 9.375V10.625C12.5 10.7908 12.4342 10.9497 12.3169 11.0669C12.1997 11.1842 12.0408 11.25 11.875 11.25H10.625C10.4592 11.25 10.3003 11.1842 10.1831 11.0669C10.0658 10.9497 10 10.7908 10 10.625V9.375ZM3.75 13.125C3.75 12.9592 3.81585 12.8003 3.93306 12.6831C4.05027 12.5658 4.20924 12.5 4.375 12.5H5.625C5.79076 12.5 5.94973 12.5658 6.06694 12.6831C6.18415 12.8003 6.25 12.9592 6.25 13.125V14.375C6.25 14.5408 6.18415 14.6997 6.06694 14.8169C5.94973 14.9342 5.79076 15 5.625 15H4.375C4.20924 15 4.05027 14.9342 3.93306 14.8169C3.81585 14.6997 3.75 14.5408 3.75 14.375V13.125ZM7.5 13.125C7.5 12.9592 7.56585 12.8003 7.68306 12.6831C7.80027 12.5658 7.95924 12.5 8.125 12.5H9.375C9.54076 12.5 9.69973 12.5658 9.81694 12.6831C9.93415 12.8003 10 12.9592 10 13.125V14.375C10 14.5408 9.93415 14.6997 9.81694 14.8169C9.69973 14.9342 9.54076 15 9.375 15H8.125C7.95924 15 7.80027 14.9342 7.68306 14.8169C7.56585 14.6997 7.5 14.5408 7.5 14.375V13.125Z" fill="#030303"/>
</svg>
