<svg width="20" height="20" viewBox="0 0 20 20" fill="none" xmlns="http://www.w3.org/2000/svg">
<path d="M5.35339 1.73914C5.49032 1.73914 5.62164 1.79353 5.71847 1.89036C5.8153 1.98718 5.86969 2.11851 5.86969 2.25544V2.77174H14.1306V2.25544C14.1306 2.11851 14.185 1.98718 14.2818 1.89036C14.3786 1.79353 14.5099 1.73914 14.6469 1.73914C14.7838 1.73914 14.9151 1.79353 15.0119 1.89036C15.1088 1.98718 15.1632 2.11851 15.1632 2.25544V2.77174H16.1958C16.7435 2.77174 17.2688 2.98933 17.6561 3.37663C18.0434 3.76394 18.261 4.28923 18.261 4.83696V16.1957C18.261 16.7434 18.0434 17.2687 17.6561 17.656C17.2688 18.0433 16.7435 18.2609 16.1958 18.2609H3.80448C3.25675 18.2609 2.73145 18.0433 2.34415 17.656C1.95684 17.2687 1.73926 16.7434 1.73926 16.1957V4.83696C1.73926 4.28923 1.95684 3.76394 2.34415 3.37663C2.73145 2.98933 3.25675 2.77174 3.80448 2.77174H4.83708V2.25544C4.83708 2.11851 4.89148 1.98718 4.98831 1.89036C5.08513 1.79353 5.21646 1.73914 5.35339 1.73914V1.73914ZM3.80448 3.80435C3.53061 3.80435 3.26796 3.91315 3.07431 4.1068C2.88066 4.30045 2.77187 4.5631 2.77187 4.83696V5.86957H17.2284V4.83696C17.2284 4.5631 17.1196 4.30045 16.9259 4.1068C16.7323 3.91315 16.4696 3.80435 16.1958 3.80435H3.80448ZM17.2284 6.90218H2.77187V16.1957C2.77187 16.4695 2.88066 16.7322 3.07431 16.9258C3.26796 17.1195 3.53061 17.2283 3.80448 17.2283H16.1958C16.4696 17.2283 16.7323 17.1195 16.9259 16.9258C17.1196 16.7322 17.2284 16.4695 17.2284 16.1957V6.90218Z" fill="#030303" stroke="#030303" stroke-width="0.296703"/>
<path d="M12.6955 9.21739C12.6955 9.07901 12.7505 8.94631 12.8483 8.84846C12.9461 8.75062 13.0788 8.69565 13.2172 8.69565H14.2607C14.3991 8.69565 14.5318 8.75062 14.6296 8.84846C14.7275 8.94631 14.7824 9.07901 14.7824 9.21739V10.2609C14.7824 10.3992 14.7275 10.5319 14.6296 10.6298C14.5318 10.7276 14.3991 10.7826 14.2607 10.7826H13.2172C13.0788 10.7826 12.9461 10.7276 12.8483 10.6298C12.7505 10.5319 12.6955 10.3992 12.6955 10.2609V9.21739ZM9.56505 9.21739C9.56505 9.07901 9.62002 8.94631 9.71786 8.84846C9.81571 8.75062 9.94841 8.69565 10.0868 8.69565H11.1303C11.2686 8.69565 11.4013 8.75062 11.4992 8.84846C11.597 8.94631 11.652 9.07901 11.652 9.21739V10.2609C11.652 10.3992 11.597 10.5319 11.4992 10.6298C11.4013 10.7276 11.2686 10.7826 11.1303 10.7826H10.0868C9.94841 10.7826 9.81571 10.7276 9.71786 10.6298C9.62002 10.5319 9.56505 10.3992 9.56505 10.2609V9.21739ZM7.47809 12.3478C7.47809 12.2094 7.53306 12.0767 7.6309 11.9789C7.72875 11.8811 7.86146 11.8261 7.99983 11.8261H9.04331C9.18168 11.8261 9.31439 11.8811 9.41223 11.9789C9.51008 12.0767 9.56505 12.2094 9.56505 12.3478V13.3913C9.56505 13.5297 9.51008 13.6624 9.41223 13.7602C9.31439 13.8581 9.18168 13.913 9.04331 13.913H7.99983C7.86146 13.913 7.72875 13.8581 7.6309 13.7602C7.53306 13.6624 7.47809 13.5297 7.47809 13.3913V12.3478ZM4.34766 12.3478C4.34766 12.2094 4.40263 12.0767 4.50047 11.9789C4.59832 11.8811 4.73102 11.8261 4.8694 11.8261H5.91287C6.05125 11.8261 6.18395 11.8811 6.2818 11.9789C6.37964 12.0767 6.43461 12.2094 6.43461 12.3478V13.3913C6.43461 13.5297 6.37964 13.6624 6.2818 13.7602C6.18395 13.8581 6.05125 13.913 5.91287 13.913H4.8694C4.73102 13.913 4.59832 13.8581 4.50047 13.7602C4.40263 13.6624 4.34766 13.5297 4.34766 13.3913V12.3478Z" fill="#030303"/>
</svg>
