<svg width="22" height="22" viewBox="0 0 22 22" fill="none" xmlns="http://www.w3.org/2000/svg">
<path d="M5.88863 1.91306C6.03926 1.91306 6.18371 1.97289 6.29022 2.0794C6.39673 2.18591 6.45656 2.33036 6.45656 2.48099V3.04893H15.5435V2.48099C15.5435 2.33036 15.6034 2.18591 15.7099 2.0794C15.8164 1.97289 15.9608 1.91306 16.1115 1.91306C16.2621 1.91306 16.4065 1.97289 16.513 2.0794C16.6196 2.18591 16.6794 2.33036 16.6794 2.48099V3.04893H17.8153C18.4178 3.04893 18.9956 3.28827 19.4216 3.7143C19.8477 4.14034 20.087 4.71816 20.087 5.32066V17.8152C20.087 18.4177 19.8477 18.9956 19.4216 19.4216C18.9956 19.8476 18.4178 20.087 17.8153 20.087H4.18483C3.58232 20.087 3.0045 19.8476 2.57846 19.4216C2.15243 18.9956 1.91309 18.4177 1.91309 17.8152V5.32066C1.91309 4.71816 2.15243 4.14034 2.57846 3.7143C3.0045 3.28827 3.58232 3.04893 4.18483 3.04893H5.32069V2.48099C5.32069 2.33036 5.38053 2.18591 5.48704 2.0794C5.59355 1.97289 5.738 1.91306 5.88863 1.91306V1.91306ZM4.18483 4.18479C3.88357 4.18479 3.59466 4.30447 3.38164 4.51748C3.16863 4.7305 3.04896 5.01941 3.04896 5.32066V6.45653H18.9511V5.32066C18.9511 5.01941 18.8315 4.7305 18.6184 4.51748C18.4054 4.30447 18.1165 4.18479 17.8153 4.18479H4.18483ZM18.9511 7.5924H3.04896V17.8152C3.04896 18.1165 3.16863 18.4054 3.38164 18.6184C3.59466 18.8314 3.88357 18.9511 4.18483 18.9511H17.8153C18.1165 18.9511 18.4054 18.8314 18.6184 18.6184C18.8315 18.4054 18.9511 18.1165 18.9511 17.8152V7.5924Z" fill="#002736" stroke="#002736" stroke-width="0.296703"/>
<path d="M13.9653 10.1391C13.9653 9.98692 14.0258 9.84094 14.1334 9.73331C14.241 9.62568 14.387 9.56522 14.5392 9.56522H15.6871C15.8393 9.56522 15.9853 9.62568 16.0929 9.73331C16.2005 9.84094 16.261 9.98692 16.261 10.1391V11.287C16.261 11.4392 16.2005 11.5851 16.0929 11.6928C15.9853 11.8004 15.8393 11.8609 15.6871 11.8609H14.5392C14.387 11.8609 14.241 11.8004 14.1334 11.6928C14.0258 11.5851 13.9653 11.4392 13.9653 11.287V10.1391ZM10.5218 10.1391C10.5218 9.98692 10.5823 9.84094 10.6899 9.73331C10.7976 9.62568 10.9435 9.56522 11.0958 9.56522H12.2436C12.3958 9.56522 12.5418 9.62568 12.6494 9.73331C12.757 9.84094 12.8175 9.98692 12.8175 10.1391V11.287C12.8175 11.4392 12.757 11.5851 12.6494 11.6928C12.5418 11.8004 12.3958 11.8609 12.2436 11.8609H11.0958C10.9435 11.8609 10.7976 11.8004 10.6899 11.6928C10.5823 11.5851 10.5218 11.4392 10.5218 11.287V10.1391ZM8.22619 13.5826C8.22619 13.4304 8.28666 13.2844 8.39429 13.1768C8.50192 13.0692 8.64789 13.0087 8.80011 13.0087H9.94793C10.1001 13.0087 10.2461 13.0692 10.3537 13.1768C10.4614 13.2844 10.5218 13.4304 10.5218 13.5826V14.7304C10.5218 14.8826 10.4614 15.0286 10.3537 15.1363C10.2461 15.2439 10.1001 15.3043 9.94793 15.3043H8.80011C8.64789 15.3043 8.50192 15.2439 8.39429 15.1363C8.28666 15.0286 8.22619 14.8826 8.22619 14.7304V13.5826ZM4.78271 13.5826C4.78271 13.4304 4.84318 13.2844 4.95081 13.1768C5.05844 13.0692 5.20442 13.0087 5.35663 13.0087H6.50445C6.65667 13.0087 6.80264 13.0692 6.91027 13.1768C7.0179 13.2844 7.07837 13.4304 7.07837 13.5826V14.7304C7.07837 14.8826 7.0179 15.0286 6.91027 15.1363C6.80264 15.2439 6.65667 15.3043 6.50445 15.3043H5.35663C5.20442 15.3043 5.05844 15.2439 4.95081 15.1363C4.84318 15.0286 4.78271 14.8826 4.78271 14.7304V13.5826Z" fill="#002736"/>
</svg>
