<svg width="22" height="22" viewBox="0 0 22 22" fill="none" xmlns="http://www.w3.org/2000/svg">
<path d="M10.9998 15.5833C12.0082 15.5833 12.8332 14.7583 12.8332 13.75C12.8332 12.7417 12.0082 11.9167 10.9998 11.9167C9.9915 11.9167 9.1665 12.7417 9.1665 13.75C9.1665 14.7583 9.9915 15.5833 10.9998 15.5833ZM16.4998 7.33332H15.5832V5.49999C15.5832 2.96999 13.5298 0.916656 10.9998 0.916656C8.46984 0.916656 6.4165 2.96999 6.4165 5.49999V7.33332H5.49984C4.4915 7.33332 3.6665 8.15832 3.6665 9.16666V18.3333C3.6665 19.3417 4.4915 20.1667 5.49984 20.1667H16.4998C17.5082 20.1667 18.3332 19.3417 18.3332 18.3333V9.16666C18.3332 8.15832 17.5082 7.33332 16.4998 7.33332ZM8.15817 5.49999C8.15817 3.93249 9.43234 2.65832 10.9998 2.65832C12.5673 2.65832 13.8415 3.93249 13.8415 5.49999V7.33332H8.15817V5.49999ZM16.4998 18.3333H5.49984V9.16666H16.4998V18.3333Z" fill="#002736"/>
</svg>
