<svg width="22" height="22" viewBox="0 0 22 22" fill="none" xmlns="http://www.w3.org/2000/svg">
<path d="M1.375 3.4375C1.375 2.89049 1.5923 2.36589 1.97909 1.97909C2.36589 1.5923 2.89049 1.375 3.4375 1.375H7.5625C8.10951 1.375 8.63411 1.5923 9.02091 1.97909C9.4077 2.36589 9.625 2.89049 9.625 3.4375V7.5625C9.625 8.10951 9.4077 8.63411 9.02091 9.02091C8.63411 9.4077 8.10951 9.625 7.5625 9.625H3.4375C2.89049 9.625 2.36589 9.4077 1.97909 9.02091C1.5923 8.63411 1.375 8.10951 1.375 7.5625V3.4375ZM3.4375 2.75C3.25516 2.75 3.0803 2.82243 2.95136 2.95136C2.82243 3.0803 2.75 3.25516 2.75 3.4375V7.5625C2.75 7.74484 2.82243 7.9197 2.95136 8.04864C3.0803 8.17757 3.25516 8.25 3.4375 8.25H7.5625C7.74484 8.25 7.9197 8.17757 8.04864 8.04864C8.17757 7.9197 8.25 7.74484 8.25 7.5625V3.4375C8.25 3.25516 8.17757 3.0803 8.04864 2.95136C7.9197 2.82243 7.74484 2.75 7.5625 2.75H3.4375ZM12.375 3.4375C12.375 2.89049 12.5923 2.36589 12.9791 1.97909C13.3659 1.5923 13.8905 1.375 14.4375 1.375H18.5625C19.1095 1.375 19.6341 1.5923 20.0209 1.97909C20.4077 2.36589 20.625 2.89049 20.625 3.4375V7.5625C20.625 8.10951 20.4077 8.63411 20.0209 9.02091C19.6341 9.4077 19.1095 9.625 18.5625 9.625H14.4375C13.8905 9.625 13.3659 9.4077 12.9791 9.02091C12.5923 8.63411 12.375 8.10951 12.375 7.5625V3.4375ZM14.4375 2.75C14.2552 2.75 14.0803 2.82243 13.9514 2.95136C13.8224 3.0803 13.75 3.25516 13.75 3.4375V7.5625C13.75 7.74484 13.8224 7.9197 13.9514 8.04864C14.0803 8.17757 14.2552 8.25 14.4375 8.25H18.5625C18.7448 8.25 18.9197 8.17757 19.0486 8.04864C19.1776 7.9197 19.25 7.74484 19.25 7.5625V3.4375C19.25 3.25516 19.1776 3.0803 19.0486 2.95136C18.9197 2.82243 18.7448 2.75 18.5625 2.75H14.4375ZM1.375 14.4375C1.375 13.8905 1.5923 13.3659 1.97909 12.9791C2.36589 12.5923 2.89049 12.375 3.4375 12.375H7.5625C8.10951 12.375 8.63411 12.5923 9.02091 12.9791C9.4077 13.3659 9.625 13.8905 9.625 14.4375V18.5625C9.625 19.1095 9.4077 19.6341 9.02091 20.0209C8.63411 20.4077 8.10951 20.625 7.5625 20.625H3.4375C2.89049 20.625 2.36589 20.4077 1.97909 20.0209C1.5923 19.6341 1.375 19.1095 1.375 18.5625V14.4375ZM3.4375 13.75C3.25516 13.75 3.0803 13.8224 2.95136 13.9514C2.82243 14.0803 2.75 14.2552 2.75 14.4375V18.5625C2.75 18.7448 2.82243 18.9197 2.95136 19.0486C3.0803 19.1776 3.25516 19.25 3.4375 19.25H7.5625C7.74484 19.25 7.9197 19.1776 8.04864 19.0486C8.17757 18.9197 8.25 18.7448 8.25 18.5625V14.4375C8.25 14.2552 8.17757 14.0803 8.04864 13.9514C7.9197 13.8224 7.74484 13.75 7.5625 13.75H3.4375ZM12.375 14.4375C12.375 13.8905 12.5923 13.3659 12.9791 12.9791C13.3659 12.5923 13.8905 12.375 14.4375 12.375H18.5625C19.1095 12.375 19.6341 12.5923 20.0209 12.9791C20.4077 13.3659 20.625 13.8905 20.625 14.4375V18.5625C20.625 19.1095 20.4077 19.6341 20.0209 20.0209C19.6341 20.4077 19.1095 20.625 18.5625 20.625H14.4375C13.8905 20.625 13.3659 20.4077 12.9791 20.0209C12.5923 19.6341 12.375 19.1095 12.375 18.5625V14.4375ZM14.4375 13.75C14.2552 13.75 14.0803 13.8224 13.9514 13.9514C13.8224 14.0803 13.75 14.2552 13.75 14.4375V18.5625C13.75 18.7448 13.8224 18.9197 13.9514 19.0486C14.0803 19.1776 14.2552 19.25 14.4375 19.25H18.5625C18.7448 19.25 18.9197 19.1776 19.0486 19.0486C19.1776 18.9197 19.25 18.7448 19.25 18.5625V14.4375C19.25 14.2552 19.1776 14.0803 19.0486 13.9514C18.9197 13.8224 18.7448 13.75 18.5625 13.75H14.4375Z" fill="#002736"/>
</svg>
