<svg width="30" height="30" viewBox="0 0 30 30" fill="none" xmlns="http://www.w3.org/2000/svg">
<path d="M26.7862 5.72717L25.7674 6.53056C30.0601 11.9743 29.5966 19.7806 24.6886 24.6886C19.9542 29.4233 12.5232 30.0217 7.11705 26.2058L16.2064 17.1161C17.2502 18.0969 19.9503 20.3761 22.5181 20.3761C24.9338 20.3761 26.899 18.4109 26.899 15.9952C26.899 13.5798 24.9338 11.6146 22.5181 11.6146C20.6107 11.6146 18.736 12.8102 17.618 13.9291L18.5352 14.8467C19.4272 13.9541 21.0054 12.9123 22.5181 12.9123C24.2183 12.9123 25.6017 14.2956 25.6017 15.9955C25.6017 17.6957 24.2183 19.0791 22.5181 19.0791C19.8738 19.0791 16.7332 15.8184 16.6907 15.7743L14.7138 13.7978L24.845 3.66629L24.2719 3.21416C18.313 -1.48654 9.76693 -0.978944 4.39387 4.39412C-0.978861 9.76685 -1.48646 18.3133 3.21392 24.2728L4.23268 23.4694C-0.0606472 18.0256 0.403487 10.2196 5.31112 5.31136C10.0459 0.576927 17.4766 -0.0221329 22.8824 3.79441L13.793 12.8841C12.7496 11.9033 10.0491 9.62414 7.48162 9.62414C5.06591 9.62414 3.10072 11.5893 3.10072 14.005C3.10072 16.4204 5.06591 18.3859 7.48162 18.3859C9.38972 18.3859 11.314 17.1392 12.3818 16.0714L11.4645 15.1542C10.5012 16.1172 8.8964 17.0886 7.48162 17.0886C5.78141 17.0886 4.39809 15.7052 4.39809 14.005C4.39809 12.3048 5.78141 10.9215 7.48162 10.9215C10.126 10.9215 13.2666 14.1821 13.3091 14.2262L15.2859 16.2028L5.15413 26.3343L5.72725 26.7861C8.45789 28.94 11.7315 30 14.994 30C18.8524 29.9997 22.6949 28.5171 25.6062 25.6058C30.9789 20.2334 31.4862 11.687 26.7862 5.72717Z" fill="#009CD9"/>
</svg>
