<svg width="22" height="22" viewBox="0 0 22 22" fill="none" xmlns="http://www.w3.org/2000/svg">
<mask id="path-1-inside-1_1314_330" fill="white">
<path fill-rule="evenodd" clip-rule="evenodd" d="M15.0254 3.85294C14.3929 3.66976 13.7285 3.62497 13.0772 3.72164C12.426 3.81831 11.8032 4.05415 11.2512 4.41312C10.6993 4.77209 10.2312 5.24577 9.87877 5.80189C9.52633 6.35802 9.29785 6.98356 9.20888 7.63592C9.1199 8.28828 9.17252 8.95215 9.36315 9.58235C9.46101 9.90585 9.37291 10.2569 9.13393 10.4959L3.66693 15.9629L3.66683 18.3333H5.50016V17.4167C5.50016 16.9104 5.91057 16.5 6.41683 16.5H7.3335V15.5833C7.3335 15.0771 7.7439 14.6667 8.25016 14.6667H9.7038L11.5042 12.8662C11.7435 12.627 12.095 12.539 12.4187 12.6373C13.1037 12.8453 13.8279 12.8899 14.5333 12.7675C15.2387 12.6452 15.9056 12.3594 16.4806 11.9329C17.0556 11.5064 17.5227 10.9512 17.8444 10.3117C18.1661 9.67234 18.3336 8.96657 18.3335 8.25089M9.16683 16.5V17.4167C9.16683 17.9229 8.75642 18.3333 8.25016 18.3333H7.3335V19.25C7.3335 19.7563 6.92309 20.1667 6.41683 20.1667H3.66683C3.1806 20.1667 2.71428 19.9735 2.37047 19.6297C2.02665 19.2859 1.8335 18.8196 1.8335 18.3333V15.9628C1.8336 15.4767 2.02679 15.0103 2.37056 14.6666L7.46919 9.56794C7.31966 8.85241 7.2932 8.11518 7.39236 7.38816C7.51693 6.47486 7.8368 5.59911 8.33021 4.82053C8.82362 4.04195 9.47898 3.37881 10.2517 2.87625C11.0244 2.37369 11.8963 2.04351 12.8081 1.90818C13.7198 1.77284 14.6501 1.83554 15.5354 2.09199C16.4208 2.34845 17.2405 2.79264 17.9388 3.39434C18.6371 3.99604 19.1975 4.74112 19.582 5.57887C19.9665 6.41661 20.1659 7.32736 20.1668 8.24912C20.1671 9.25137 19.9326 10.2404 19.4822 11.1357C19.0317 12.031 18.3777 12.8083 17.5727 13.4054C16.7677 14.0025 15.8341 14.4027 14.8466 14.5739C14.0445 14.713 13.2251 14.6979 12.4318 14.5314L10.7317 16.2315C10.5598 16.4034 10.3266 16.5 10.0835 16.5H9.16683ZM18.3335 8.25089C18.3328 7.5927 18.1903 6.94177 17.9158 6.34356C17.6411 5.74517 17.2408 5.21297 16.742 4.78319C16.2433 4.3534 15.6578 4.03612 15.0254 3.85294M12.8335 6.41667C12.8335 5.91041 13.2439 5.5 13.7502 5.5C14.4795 5.5 15.179 5.78974 15.6947 6.30546C16.2104 6.82119 16.5002 7.52066 16.5002 8.25C16.5002 8.75626 16.0898 9.16667 15.5835 9.16667C15.0772 9.16667 14.6668 8.75626 14.6668 8.25C14.6668 8.00689 14.5703 7.77373 14.3983 7.60182C14.2264 7.42991 13.9933 7.33334 13.7502 7.33334C13.2439 7.33334 12.8335 6.92293 12.8335 6.41667Z"/>
</mask>
<path fill-rule="evenodd" clip-rule="evenodd" d="M15.0254 3.85294C14.3929 3.66976 13.7285 3.62497 13.0772 3.72164C12.426 3.81831 11.8032 4.05415 11.2512 4.41312C10.6993 4.77209 10.2312 5.24577 9.87877 5.80189C9.52633 6.35802 9.29785 6.98356 9.20888 7.63592C9.1199 8.28828 9.17252 8.95215 9.36315 9.58235C9.46101 9.90585 9.37291 10.2569 9.13393 10.4959L3.66693 15.9629L3.66683 18.3333H5.50016V17.4167C5.50016 16.9104 5.91057 16.5 6.41683 16.5H7.3335V15.5833C7.3335 15.0771 7.7439 14.6667 8.25016 14.6667H9.7038L11.5042 12.8662C11.7435 12.627 12.095 12.539 12.4187 12.6373C13.1037 12.8453 13.8279 12.8899 14.5333 12.7675C15.2387 12.6452 15.9056 12.3594 16.4806 11.9329C17.0556 11.5064 17.5227 10.9512 17.8444 10.3117C18.1661 9.67234 18.3336 8.96657 18.3335 8.25089M9.16683 16.5V17.4167C9.16683 17.9229 8.75642 18.3333 8.25016 18.3333H7.3335V19.25C7.3335 19.7563 6.92309 20.1667 6.41683 20.1667H3.66683C3.1806 20.1667 2.71428 19.9735 2.37047 19.6297C2.02665 19.2859 1.8335 18.8196 1.8335 18.3333V15.9628C1.8336 15.4767 2.02679 15.0103 2.37056 14.6666L7.46919 9.56794C7.31966 8.85241 7.2932 8.11518 7.39236 7.38816C7.51693 6.47486 7.8368 5.59911 8.33021 4.82053C8.82362 4.04195 9.47898 3.37881 10.2517 2.87625C11.0244 2.37369 11.8963 2.04351 12.8081 1.90818C13.7198 1.77284 14.6501 1.83554 15.5354 2.09199C16.4208 2.34845 17.2405 2.79264 17.9388 3.39434C18.6371 3.99604 19.1975 4.74112 19.582 5.57887C19.9665 6.41661 20.1659 7.32736 20.1668 8.24912C20.1671 9.25137 19.9326 10.2404 19.4822 11.1357C19.0317 12.031 18.3777 12.8083 17.5727 13.4054C16.7677 14.0025 15.8341 14.4027 14.8466 14.5739C14.0445 14.713 13.2251 14.6979 12.4318 14.5314L10.7317 16.2315C10.5598 16.4034 10.3266 16.5 10.0835 16.5H9.16683ZM18.3335 8.25089C18.3328 7.5927 18.1903 6.94177 17.9158 6.34356C17.6411 5.74517 17.2408 5.21297 16.742 4.78319C16.2433 4.3534 15.6578 4.03612 15.0254 3.85294M12.8335 6.41667C12.8335 5.91041 13.2439 5.5 13.7502 5.5C14.4795 5.5 15.179 5.78974 15.6947 6.30546C16.2104 6.82119 16.5002 7.52066 16.5002 8.25C16.5002 8.75626 16.0898 9.16667 15.5835 9.16667C15.0772 9.16667 14.6668 8.75626 14.6668 8.25C14.6668 8.00689 14.5703 7.77373 14.3983 7.60182C14.2264 7.42991 13.9933 7.33334 13.7502 7.33334C13.2439 7.33334 12.8335 6.92293 12.8335 6.41667Z" fill="#002736"/>
<path d="M15.1053 3.79283C15.0721 3.74869 15.0094 3.73982 14.9652 3.77302C14.9211 3.80622 14.9122 3.86891 14.9454 3.91305L15.1053 3.79283ZM18.2536 8.311C18.2868 8.35514 18.3495 8.364 18.3936 8.3308C18.4377 8.2976 18.4466 8.23491 18.4134 8.19078L18.2536 8.311ZM20.1667 8.14912C20.1115 8.14919 20.0668 8.19402 20.0668 8.24925C20.0669 8.30448 20.1117 8.34919 20.167 8.34912L20.1667 8.14912ZM20.0741 8.14912C20.0189 8.14917 19.9742 8.19399 19.9742 8.24922C19.9743 8.30445 20.0191 8.34917 20.0743 8.34912L20.0741 8.14912ZM18.4134 8.19078L15.1053 3.79283L14.9454 3.91305L18.2536 8.311L18.4134 8.19078ZM20.0743 8.34912C20.1638 8.34903 20.2143 8.34899 20.2398 8.34897C20.2526 8.34897 20.2589 8.34897 20.2607 8.34897C20.2609 8.34897 20.2609 8.34897 20.2608 8.34897C20.2608 8.34897 20.2607 8.34897 20.2606 8.34897C20.2605 8.34897 20.2602 8.34896 20.2597 8.34896C20.2595 8.34895 20.2587 8.34893 20.2582 8.34892C20.2571 8.34888 20.2501 8.34832 20.2442 8.34748C20.1615 8.24811 20.2509 8.14953 20.2559 8.14912C20.257 8.14907 20.2585 8.14901 20.259 8.149C20.2603 8.14897 20.2617 8.14897 20.2602 8.14898C20.2592 8.14898 20.2573 8.14899 20.2546 8.14899C20.2438 8.14901 20.2219 8.14904 20.2026 8.14907C20.1929 8.14909 20.184 8.1491 20.1774 8.14911C20.1741 8.14911 20.1714 8.14911 20.1696 8.14912C20.1687 8.14912 20.1679 8.14912 20.1674 8.14912C20.1672 8.14912 20.167 8.14912 20.1669 8.14912C20.1668 8.14912 20.1668 8.14912 20.1667 8.14912C20.1667 8.14912 20.1667 8.14912 20.1667 8.14912C20.1667 8.14912 20.1667 8.14912 20.1667 8.14912C20.1667 8.14912 20.1667 8.14912 20.1668 8.24912C20.167 8.34912 20.167 8.34912 20.167 8.34912C20.167 8.34912 20.167 8.34912 20.167 8.34912C20.167 8.34912 20.167 8.34912 20.167 8.34912C20.167 8.34912 20.1671 8.34912 20.1671 8.34912C20.1673 8.34912 20.1675 8.34912 20.1677 8.34912C20.1682 8.34912 20.1689 8.34912 20.1699 8.34912C20.1717 8.34911 20.1744 8.34911 20.1777 8.34911C20.1842 8.3491 20.1932 8.34909 20.2028 8.34907C20.2221 8.34904 20.2441 8.34901 20.255 8.34899C20.2577 8.34899 20.2597 8.34898 20.2609 8.34898C20.2612 8.34898 20.2615 8.34897 20.2617 8.34897C20.2618 8.34897 20.262 8.34897 20.2622 8.34897C20.2623 8.34897 20.2625 8.34897 20.2626 8.34897C20.2627 8.34896 20.2633 8.34896 20.2639 8.34894C20.2644 8.34893 20.2659 8.34887 20.267 8.34882C20.272 8.34841 20.3615 8.24983 20.2787 8.15047C20.2729 8.14962 20.2658 8.14907 20.2647 8.14902C20.2642 8.14901 20.2635 8.14899 20.2632 8.14899C20.2627 8.14898 20.2624 8.14897 20.2623 8.14897C20.2621 8.14897 20.262 8.14897 20.2619 8.14897C20.2616 8.14897 20.2613 8.14897 20.261 8.14897C20.2589 8.14896 20.2523 8.14897 20.2396 8.14897C20.2142 8.14899 20.1636 8.14903 20.0741 8.14912L20.0743 8.34912ZM13.0772 3.72164L13.1066 3.91947L13.0772 3.72164ZM15.0254 3.85294L14.9697 4.04504L15.0254 3.85294ZM11.2512 4.41312L11.3603 4.58078L11.2512 4.41312ZM9.20888 7.63592L9.01071 7.60889L9.20888 7.63592ZM9.36315 9.58235L9.55458 9.52444L9.36315 9.58235ZM9.13393 10.4959L9.27535 10.6374L9.13393 10.4959ZM3.66693 15.9629L3.52551 15.8215C3.488 15.859 3.46693 15.9099 3.46693 15.9629L3.66693 15.9629ZM3.66683 18.3333L3.46683 18.3333C3.46683 18.3864 3.4879 18.4372 3.52541 18.4748C3.56291 18.5123 3.61378 18.5333 3.66683 18.5333V18.3333ZM5.50016 18.3333V18.5333C5.61062 18.5333 5.70016 18.4438 5.70016 18.3333H5.50016ZM7.3335 16.5V16.7C7.44395 16.7 7.5335 16.6105 7.5335 16.5H7.3335ZM9.7038 14.6667V14.8667C9.75684 14.8667 9.80771 14.8456 9.84522 14.8081L9.7038 14.6667ZM11.5042 12.8662L11.6457 13.0077L11.5042 12.8662ZM12.4187 12.6373L12.3606 12.8287L12.4187 12.6373ZM14.5333 12.7675L14.4991 12.5705H14.4991L14.5333 12.7675ZM16.4806 11.9329L16.5997 12.0935L16.4806 11.9329ZM17.8444 10.3117L18.0231 10.4016L17.8444 10.3117ZM18.3335 8.25089L18.5335 8.25086V8.25067L18.3335 8.25089ZM9.16683 16.5V16.3C9.05637 16.3 8.96683 16.3895 8.96683 16.5H9.16683ZM7.3335 18.3333V18.1333C7.22304 18.1333 7.1335 18.2229 7.1335 18.3333H7.3335ZM2.37047 19.6297L2.22905 19.7711L2.22905 19.7711L2.37047 19.6297ZM1.8335 15.9628L1.6335 15.9628V15.9628H1.8335ZM2.37056 14.6666L2.51198 14.808L2.51199 14.808L2.37056 14.6666ZM7.46919 9.56794L7.61062 9.70937C7.65833 9.66165 7.67877 9.59309 7.66496 9.52703L7.46919 9.56794ZM7.39236 7.38816L7.1942 7.36113L7.39236 7.38816ZM8.33021 4.82053L8.49914 4.92759V4.92759L8.33021 4.82053ZM10.2517 2.87625L10.1426 2.70859L10.1426 2.70859L10.2517 2.87625ZM12.8081 1.90818L12.8374 2.10601L12.8081 1.90818ZM15.5354 2.09199L15.4798 2.28409L15.5354 2.09199ZM17.9388 3.39434L17.8082 3.54585L17.8082 3.54585L17.9388 3.39434ZM20.1668 8.24912L20.3668 8.24906V8.24893L20.1668 8.24912ZM19.4822 11.1357L19.3035 11.0458L19.4822 11.1357ZM17.5727 13.4054L17.4536 13.2448L17.5727 13.4054ZM14.8466 14.5739L14.8807 14.771H14.8807L14.8466 14.5739ZM12.4318 14.5314L12.4729 14.3357C12.4068 14.3218 12.3382 14.3422 12.2904 14.39L12.4318 14.5314ZM10.7317 16.2315L10.8731 16.3729L10.7317 16.2315ZM17.9158 6.34356L18.0975 6.26014L17.9158 6.34356ZM16.742 4.78319L16.8726 4.63168H16.8726L16.742 4.78319ZM15.6947 6.30546L15.8361 6.16404L15.6947 6.30546ZM14.3983 7.60182L14.5398 7.4604V7.4604L14.3983 7.60182ZM13.1066 3.91947C13.7294 3.82703 14.3649 3.86985 14.9697 4.04504L15.081 3.66083C14.421 3.46966 13.7276 3.42292 13.0479 3.52381L13.1066 3.91947ZM11.3603 4.58078C11.8881 4.23748 12.4838 4.01192 13.1066 3.91947L13.0479 3.52381C12.3682 3.62469 11.7182 3.87083 11.1422 4.24547L11.3603 4.58078ZM10.0477 5.90895C10.3848 5.37709 10.8324 4.92409 11.3603 4.58078L11.1422 4.24547C10.5662 4.6201 10.0776 5.11444 9.70983 5.69484L10.0477 5.90895ZM9.40704 7.66294C9.49214 7.03905 9.71065 6.44081 10.0477 5.90895L9.70983 5.69484C9.34202 6.27523 9.10357 6.92806 9.01071 7.60889L9.40704 7.66294ZM9.55458 9.52444C9.37227 8.92174 9.32195 8.28684 9.40704 7.66294L9.01071 7.60889C8.91785 8.28971 8.97277 8.98256 9.17172 9.64025L9.55458 9.52444ZM9.27535 10.6374C9.56648 10.3462 9.67379 9.91852 9.55458 9.52444L9.17172 9.64025C9.24822 9.89317 9.17935 10.1677 8.99251 10.3545L9.27535 10.6374ZM3.80835 16.1044L9.27535 10.6374L8.99251 10.3545L3.52551 15.8215L3.80835 16.1044ZM3.86683 18.3333L3.86693 15.9629L3.46693 15.9629L3.46683 18.3333L3.86683 18.3333ZM5.50016 18.1333H3.66683V18.5333H5.50016V18.1333ZM5.30016 17.4167V18.3333H5.70016V17.4167H5.30016ZM6.41683 16.3C5.80011 16.3 5.30016 16.8 5.30016 17.4167H5.70016C5.70016 17.0209 6.02103 16.7 6.41683 16.7V16.3ZM7.3335 16.3H6.41683V16.7H7.3335V16.3ZM7.1335 15.5833V16.5H7.5335V15.5833H7.1335ZM8.25016 14.4667C7.63344 14.4667 7.1335 14.9666 7.1335 15.5833H7.5335C7.5335 15.1875 7.85436 14.8667 8.25016 14.8667V14.4667ZM9.7038 14.4667H8.25016V14.8667H9.7038V14.4667ZM11.3628 12.7248L9.56238 14.5252L9.84522 14.8081L11.6457 13.0077L11.3628 12.7248ZM12.4768 12.4459C12.0825 12.3262 11.6542 12.4334 11.3628 12.7248L11.6457 13.0077C11.8327 12.8206 12.1075 12.7518 12.3606 12.8287L12.4768 12.4459ZM14.4991 12.5705C13.8245 12.6875 13.1319 12.6448 12.4768 12.4459L12.3606 12.8287C13.0755 13.0457 13.8313 13.0923 14.5675 12.9646L14.4991 12.5705ZM16.3614 11.7722C15.8115 12.1801 15.1737 12.4535 14.4991 12.5705L14.5675 12.9646C15.3036 12.8369 15.9996 12.5386 16.5997 12.0935L16.3614 11.7722ZM17.6658 10.2218C17.3581 10.8334 16.9113 11.3644 16.3614 11.7722L16.5997 12.0935C17.1998 11.6484 17.6873 11.069 18.0231 10.4016L17.6658 10.2218ZM18.1335 8.25092C18.1336 8.93537 17.9734 9.61034 17.6658 10.2218L18.0231 10.4016C18.3588 9.73433 18.5336 8.99777 18.5335 8.25086L18.1335 8.25092ZM9.36683 17.4167V16.5H8.96683V17.4167H9.36683ZM8.25016 18.5333C8.86688 18.5333 9.36683 18.0334 9.36683 17.4167H8.96683C8.96683 17.8125 8.64597 18.1333 8.25016 18.1333V18.5333ZM7.3335 18.5333H8.25016V18.1333H7.3335V18.5333ZM7.5335 19.25V18.3333H7.1335V19.25H7.5335ZM6.41683 20.3667C7.03355 20.3667 7.5335 19.8667 7.5335 19.25H7.1335C7.1335 19.6458 6.81263 19.9667 6.41683 19.9667V20.3667ZM3.66683 20.3667H6.41683V19.9667H3.66683V20.3667ZM2.22905 19.7711C2.61037 20.1524 3.12756 20.3667 3.66683 20.3667V19.9667C3.23364 19.9667 2.8182 19.7946 2.51189 19.4883L2.22905 19.7711ZM1.6335 18.3333C1.6335 18.8726 1.84772 19.3898 2.22905 19.7711L2.51189 19.4883C2.20558 19.182 2.0335 18.7665 2.0335 18.3333H1.6335ZM2.22915 14.5251C1.84786 14.9064 1.63361 15.4236 1.6335 15.9628L2.0335 15.9629C2.03359 15.5297 2.20572 15.1142 2.51198 14.808L2.22915 14.5251ZM7.32777 9.42652L2.22914 14.5252L2.51199 14.808L7.61062 9.70937L7.32777 9.42652ZM7.1942 7.36113C7.09195 8.11081 7.11923 8.87102 7.27342 9.60886L7.66496 9.52703C7.52009 8.8338 7.49446 8.11955 7.59053 7.41519L7.1942 7.36113ZM8.16127 4.71347C7.65249 5.51632 7.32264 6.41936 7.1942 7.36113L7.59053 7.41519C7.71121 6.53035 8.02111 5.6819 8.49914 4.92759L8.16127 4.71347ZM10.1426 2.70859C9.34585 3.22682 8.67006 3.91062 8.16127 4.71347L8.49914 4.92759C8.97717 4.17327 9.6121 3.53081 10.3607 3.04391L10.1426 2.70859ZM12.7787 1.71034C11.8385 1.84989 10.9394 2.19037 10.1426 2.70859L10.3607 3.04391C11.1093 2.55701 11.9541 2.23712 12.8374 2.10601L12.7787 1.71034ZM15.5911 1.89989C14.6781 1.63544 13.7189 1.57079 12.7787 1.71034L12.8374 2.10601C13.7208 1.97489 14.622 2.03563 15.4798 2.28409L15.5911 1.89989ZM18.0693 3.24283C17.3493 2.62237 16.504 2.16434 15.5911 1.89989L15.4798 2.28409C16.3376 2.53255 17.1317 2.9629 17.8082 3.54585L18.0693 3.24283ZM19.7638 5.49544C19.3673 4.63159 18.7894 3.86328 18.0693 3.24283L17.8082 3.54585C18.4848 4.12879 19.0277 4.85065 19.4002 5.66229L19.7638 5.49544ZM20.3668 8.24893C20.3659 7.29844 20.1602 6.3593 19.7638 5.49544L19.4002 5.66229C19.7727 6.47392 19.966 7.35628 19.9668 8.24931L20.3668 8.24893ZM19.6608 11.2256C20.1253 10.3023 20.3671 9.28253 20.3668 8.24906L19.9668 8.24918C19.9671 9.22021 19.7399 10.1784 19.3035 11.0458L19.6608 11.2256ZM17.6919 13.566C18.522 12.9504 19.1963 12.1488 19.6608 11.2256L19.3035 11.0458C18.8671 11.9132 18.2335 12.6663 17.4536 13.2448L17.6919 13.566ZM14.8807 14.771C15.899 14.5944 16.8618 14.1817 17.6919 13.566L17.4536 13.2448C16.6737 13.8232 15.7691 14.2109 14.8124 14.3769L14.8807 14.771ZM12.3907 14.7271C13.2087 14.8989 14.0537 14.9144 14.8807 14.771L14.8124 14.3769C14.0354 14.5116 13.2415 14.497 12.4729 14.3357L12.3907 14.7271ZM10.8731 16.3729L12.5732 14.6728L12.2904 14.39L10.5903 16.0901L10.8731 16.3729ZM10.0835 16.7C10.3797 16.7 10.6637 16.5824 10.8731 16.3729L10.5903 16.0901C10.4559 16.2245 10.2736 16.3 10.0835 16.3V16.7ZM9.16683 16.7H10.0835V16.3H9.16683V16.7ZM17.734 6.42698C17.9965 6.99906 18.1328 7.62161 18.1335 8.25111L18.5335 8.25067C18.5327 7.56379 18.3841 6.88447 18.0975 6.26014L17.734 6.42698ZM16.6115 4.9347C17.0885 5.34573 17.4713 5.85471 17.734 6.42698L18.0975 6.26014C17.8109 5.63564 17.3931 5.08022 16.8726 4.63168L16.6115 4.9347ZM14.9697 4.04504C15.5745 4.22023 16.1345 4.52367 16.6115 4.9347L16.8726 4.63168C16.3521 4.18314 15.741 3.85201 15.081 3.66083L14.9697 4.04504ZM13.7502 5.3C13.1334 5.3 12.6335 5.79995 12.6335 6.41667H13.0335C13.0335 6.02087 13.3544 5.7 13.7502 5.7V5.3ZM15.8361 6.16404C15.2829 5.61081 14.5326 5.3 13.7502 5.3V5.7C14.4265 5.7 15.0751 5.96866 15.5533 6.44688L15.8361 6.16404ZM16.7002 8.25C16.7002 7.46761 16.3894 6.71727 15.8361 6.16404L15.5533 6.44688C16.0315 6.9251 16.3002 7.5737 16.3002 8.25H16.7002ZM15.5835 9.36667C16.2002 9.36667 16.7002 8.86672 16.7002 8.25H16.3002C16.3002 8.64581 15.9793 8.96667 15.5835 8.96667V9.36667ZM14.4668 8.25C14.4668 8.86672 14.9668 9.36667 15.5835 9.36667V8.96667C15.1877 8.96667 14.8668 8.64581 14.8668 8.25H14.4668ZM14.2569 7.74324C14.3913 7.87765 14.4668 8.05993 14.4668 8.25H14.8668C14.8668 7.95385 14.7492 7.66982 14.5398 7.4604L14.2569 7.74324ZM13.7502 7.53334C13.9402 7.53334 14.1225 7.60884 14.2569 7.74324L14.5398 7.4604C14.3303 7.25099 14.0463 7.13334 13.7502 7.13334V7.53334ZM12.6335 6.41667C12.6335 7.03339 13.1334 7.53334 13.7502 7.53334V7.13334C13.3544 7.13334 13.0335 6.81247 13.0335 6.41667H12.6335ZM1.6335 15.9628V18.3333H2.0335V15.9628H1.6335Z" fill="#F4F4F4" mask="url(#path-1-inside-1_1314_330)"/>
</svg>
