<svg width="22" height="22" viewBox="0 0 22 22" fill="none" xmlns="http://www.w3.org/2000/svg">
<g clip-path="url(#clip0_430_588)">
<path fill-rule="evenodd" clip-rule="evenodd" d="M15.125 20.625C16.5837 20.625 17.9826 20.0455 19.0141 19.0141C20.0455 17.9826 20.625 16.5837 20.625 15.125C20.625 13.6663 20.0455 12.2674 19.0141 11.2359C17.9826 10.2045 16.5837 9.625 15.125 9.625C13.6663 9.625 12.2674 10.2045 11.2359 11.2359C10.2045 12.2674 9.625 13.6663 9.625 15.125C9.625 16.5837 10.2045 17.9826 11.2359 19.0141C12.2674 20.0455 13.6663 20.625 15.125 20.625ZM22 15.125C22 16.9484 21.2757 18.697 19.9864 19.9864C18.697 21.2757 16.9484 22 15.125 22C13.3016 22 11.553 21.2757 10.2636 19.9864C8.97433 18.697 8.25 16.9484 8.25 15.125C8.25 13.3016 8.97433 11.553 10.2636 10.2636C11.553 8.97433 13.3016 8.25 15.125 8.25C16.9484 8.25 18.697 8.97433 19.9864 10.2636C21.2757 11.553 22 13.3016 22 15.125Z" fill="#002736"/>
<path d="M12.9774 16.423C13.0421 17.2425 13.6897 17.8805 14.8516 17.9575V18.5625H15.3672V17.9534C16.5703 17.8695 17.2729 17.226 17.2729 16.2938C17.2729 15.444 16.7367 15.0068 15.7742 14.7812L15.3672 14.685V13.035C15.8842 13.0941 16.2114 13.376 16.2898 13.7665H17.1946C17.1299 12.9759 16.4521 12.3585 15.3672 12.2911V11.6875H14.8516V12.3062C13.8244 12.4066 13.1259 13.024 13.1259 13.8985C13.1259 14.6712 13.6457 15.1635 14.5106 15.3642L14.8516 15.4481V17.1971C14.3236 17.1174 13.9729 16.8259 13.8946 16.423H12.9774ZM14.8474 14.5613C14.3401 14.4444 14.0651 14.2037 14.0651 13.8435C14.0651 13.4392 14.3621 13.1367 14.8516 13.0487V14.5613H14.8474ZM15.4414 15.587C16.0588 15.73 16.3421 15.961 16.3421 16.3694C16.3421 16.8355 15.9887 17.1545 15.3672 17.2136V15.5705L15.4414 15.587Z" fill="#002736"/>
<path d="M1.375 0C1.01033 0 0.660591 0.144866 0.402728 0.402728C0.144866 0.660591 0 1.01033 0 1.375L0 12.375C0 12.7397 0.144866 13.0894 0.402728 13.3473C0.660591 13.6051 1.01033 13.75 1.375 13.75H6.98913C7.06888 13.277 7.1885 12.8177 7.34387 12.375H4.125C4.125 11.6457 3.83527 10.9462 3.31954 10.4305C2.80382 9.91473 2.10435 9.625 1.375 9.625V4.125C2.10435 4.125 2.80382 3.83527 3.31954 3.31954C3.83527 2.80382 4.125 2.10435 4.125 1.375H17.875C17.875 2.10435 18.1647 2.80382 18.6805 3.31954C19.1962 3.83527 19.8957 4.125 20.625 4.125V8.976C21.1475 9.4435 21.6109 9.977 22 10.5627V1.375C22 1.01033 21.8551 0.660591 21.5973 0.402728C21.3394 0.144866 20.9897 0 20.625 0L1.375 0Z" fill="#002736"/>
<path d="M13.7473 6.98914L13.75 6.87501C13.7497 6.40145 13.6272 5.93599 13.3942 5.5237C13.1612 5.11142 12.8257 4.76628 12.4202 4.52172C12.0146 4.27717 11.5528 4.14148 11.0795 4.1278C10.6061 4.11411 10.1372 4.2229 9.71824 4.44363C9.29926 4.66435 8.94438 4.98953 8.68798 5.38767C8.43157 5.78581 8.28232 6.24342 8.25469 6.71618C8.22705 7.18893 8.32197 7.66081 8.53024 8.08611C8.73852 8.51142 9.05309 8.87573 9.4435 9.14376C10.6312 8.01251 12.1299 7.26217 13.7473 6.98914Z" fill="#002736"/>
</g>
<defs>
<clipPath id="clip0_430_588">
<rect width="22" height="22" fill="white"/>
</clipPath>
</defs>
</svg>
