<svg width="20" height="20" viewBox="0 0 20 20" fill="none" xmlns="http://www.w3.org/2000/svg">
<g clip-path="url(#clip0_430_580)">
<path fill-rule="evenodd" clip-rule="evenodd" d="M13.75 18.75C15.0761 18.75 16.3479 18.2232 17.2855 17.2855C18.2232 16.3479 18.75 15.0761 18.75 13.75C18.75 12.4239 18.2232 11.1521 17.2855 10.2145C16.3479 9.27678 15.0761 8.75 13.75 8.75C12.4239 8.75 11.1521 9.27678 10.2145 10.2145C9.27678 11.1521 8.75 12.4239 8.75 13.75C8.75 15.0761 9.27678 16.3479 10.2145 17.2855C11.1521 18.2232 12.4239 18.75 13.75 18.75ZM20 13.75C20 15.4076 19.3415 16.9973 18.1694 18.1694C16.9973 19.3415 15.4076 20 13.75 20C12.0924 20 10.5027 19.3415 9.33058 18.1694C8.15848 16.9973 7.5 15.4076 7.5 13.75C7.5 12.0924 8.15848 10.5027 9.33058 9.33058C10.5027 8.15848 12.0924 7.5 13.75 7.5C15.4076 7.5 16.9973 8.15848 18.1694 9.33058C19.3415 10.5027 20 12.0924 20 13.75Z" fill="#030303"/>
<path d="M11.7976 14.93C11.8564 15.675 12.4451 16.255 13.5014 16.325V16.875H13.9701V16.3213C15.0639 16.245 15.7026 15.66 15.7026 14.8125C15.7026 14.04 15.2151 13.6425 14.3401 13.4375L13.9701 13.35V11.85C14.4401 11.9037 14.7376 12.16 14.8089 12.515H15.6314C15.5726 11.7963 14.9564 11.235 13.9701 11.1738V10.625H13.5014V11.1875C12.5676 11.2787 11.9326 11.84 11.9326 12.635C11.9326 13.3375 12.4051 13.785 13.1914 13.9675L13.5014 14.0437V15.6337C13.0214 15.5612 12.7026 15.2963 12.6314 14.93H11.7976ZM13.4976 13.2375C13.0364 13.1313 12.7864 12.9125 12.7864 12.585C12.7864 12.2175 13.0564 11.9425 13.5014 11.8625V13.2375H13.4976ZM14.0376 14.17C14.5989 14.3 14.8564 14.51 14.8564 14.8812C14.8564 15.305 14.5351 15.595 13.9701 15.6488V14.155L14.0376 14.17Z" fill="#030303"/>
<path d="M1.25 0C0.918479 0 0.600537 0.131696 0.366117 0.366117C0.131696 0.600537 0 0.918479 0 1.25L0 11.25C0 11.5815 0.131696 11.8995 0.366117 12.1339C0.600537 12.3683 0.918479 12.5 1.25 12.5H6.35375C6.42625 12.07 6.535 11.6525 6.67625 11.25H3.75C3.75 10.587 3.48661 9.95107 3.01777 9.48223C2.54893 9.01339 1.91304 8.75 1.25 8.75V3.75C1.91304 3.75 2.54893 3.48661 3.01777 3.01777C3.48661 2.54893 3.75 1.91304 3.75 1.25H16.25C16.25 1.91304 16.5134 2.54893 16.9822 3.01777C17.4511 3.48661 18.087 3.75 18.75 3.75V8.16C19.225 8.585 19.6463 9.07 20 9.6025V1.25C20 0.918479 19.8683 0.600537 19.6339 0.366117C19.3995 0.131696 19.0815 0 18.75 0L1.25 0Z" fill="#030303"/>
<path d="M12.4975 6.35376L12.5 6.25001C12.4997 5.8195 12.3883 5.39635 12.1765 5.02154C11.9647 4.64674 11.6597 4.33298 11.291 4.11066C10.9224 3.88833 10.5026 3.76498 10.0722 3.75254C9.6419 3.7401 9.21565 3.839 8.83476 4.03966C8.45387 4.24032 8.13126 4.53594 7.89816 4.89788C7.66506 5.25983 7.52938 5.67584 7.50426 6.10561C7.47914 6.53539 7.56543 6.96437 7.75477 7.35101C7.94411 7.73765 8.23009 8.06884 8.585 8.31251C9.6647 7.2841 11.0272 6.60197 12.4975 6.35376Z" fill="#030303"/>
</g>
<defs>
<clipPath id="clip0_430_580">
<rect width="20" height="20" fill="white"/>
</clipPath>
</defs>
</svg>
