<svg width="22" height="22" viewBox="0 0 22 22" fill="none" xmlns="http://www.w3.org/2000/svg">
<path d="M11 1.375C5.68477 1.375 1.375 5.68477 1.375 11C1.375 16.3152 5.68477 20.625 11 20.625C16.3152 20.625 20.625 16.3152 20.625 11C20.625 5.68477 16.3152 1.375 11 1.375ZM11 18.9922C6.58711 18.9922 3.00781 15.4129 3.00781 11C3.00781 6.58711 6.58711 3.00781 11 3.00781C15.4129 3.00781 18.9922 6.58711 18.9922 11C18.9922 15.4129 15.4129 18.9922 11 18.9922ZM12.0248 10.5016L11.4791 10.3748V7.48945C12.2955 7.60117 12.8004 8.1125 12.8863 8.73984C12.8971 8.82578 12.9701 8.88809 13.0561 8.88809H14.0207C14.1217 8.88809 14.2012 8.8 14.1926 8.69902C14.0615 7.36055 12.9594 6.50117 11.4877 6.35293V5.65039C11.4877 5.55586 11.4104 5.47852 11.3158 5.47852H10.7121C10.6176 5.47852 10.5402 5.55586 10.5402 5.65039V6.35938C9.01914 6.50762 7.82891 7.34766 7.82891 8.91602C7.82891 10.3684 8.89883 11.0688 10.0225 11.3373L10.5531 11.4727V14.5385C9.60352 14.4117 9.0707 13.9047 8.96113 13.2215C8.94824 13.1398 8.8752 13.0797 8.79141 13.0797H7.79883C7.69785 13.0797 7.61836 13.1656 7.62695 13.2666C7.72363 14.4482 8.61953 15.5354 10.5316 15.675V16.3496C10.5316 16.4441 10.609 16.5215 10.7035 16.5215H11.3137C11.4082 16.5215 11.4855 16.4441 11.4855 16.3475L11.4813 15.6664C13.1635 15.5182 14.3666 14.618 14.3666 13.0023C14.3645 11.5113 13.417 10.8453 12.0248 10.5016V10.5016ZM10.551 10.1535C10.4307 10.1191 10.3297 10.0869 10.2287 10.0461C9.50254 9.78398 9.16523 9.36074 9.16523 8.81504C9.16523 8.03516 9.75605 7.59043 10.551 7.48945V10.1535ZM11.4791 14.5449V11.6725C11.5457 11.6918 11.6059 11.7068 11.6682 11.7197C12.6844 12.0291 13.026 12.4588 13.026 13.1184C13.026 13.9584 12.3943 14.4633 11.4791 14.5449Z" fill="#002736"/>
</svg>
