<svg width="22" height="22" viewBox="0 0 22 22" fill="none" xmlns="http://www.w3.org/2000/svg">
<path d="M2.92188 8.25H4.125C4.21953 8.25 4.29688 8.17266 4.29688 8.07812V4.29688H8.07812C8.17266 4.29688 8.25 4.21953 8.25 4.125V2.92188C8.25 2.82734 8.17266 2.75 8.07812 2.75H4.21094C3.40313 2.75 2.75 3.40313 2.75 4.21094V8.07812C2.75 8.17266 2.82734 8.25 2.92188 8.25ZM13.9219 4.29688H17.7031V8.07812C17.7031 8.17266 17.7805 8.25 17.875 8.25H19.0781C19.1727 8.25 19.25 8.17266 19.25 8.07812V4.21094C19.25 3.40313 18.5969 2.75 17.7891 2.75H13.9219C13.8273 2.75 13.75 2.82734 13.75 2.92188V4.125C13.75 4.21953 13.8273 4.29688 13.9219 4.29688ZM8.07812 17.7031H4.29688V13.9219C4.29688 13.8273 4.21953 13.75 4.125 13.75H2.92188C2.82734 13.75 2.75 13.8273 2.75 13.9219V17.7891C2.75 18.5969 3.40313 19.25 4.21094 19.25H8.07812C8.17266 19.25 8.25 19.1727 8.25 19.0781V17.875C8.25 17.7805 8.17266 17.7031 8.07812 17.7031ZM19.0781 13.75H17.875C17.7805 13.75 17.7031 13.8273 17.7031 13.9219V17.7031H13.9219C13.8273 17.7031 13.75 17.7805 13.75 17.875V19.0781C13.75 19.1727 13.8273 19.25 13.9219 19.25H17.7891C18.5969 19.25 19.25 18.5969 19.25 17.7891V13.9219C19.25 13.8273 19.1727 13.75 19.0781 13.75ZM19.4219 10.2266H2.57812C2.48359 10.2266 2.40625 10.3039 2.40625 10.3984V11.6016C2.40625 11.6961 2.48359 11.7734 2.57812 11.7734H19.4219C19.5164 11.7734 19.5938 11.6961 19.5938 11.6016V10.3984C19.5938 10.3039 19.5164 10.2266 19.4219 10.2266Z" fill="#002736"/>
</svg>
