<svg width="22" height="22" viewBox="0 0 22 22" fill="none" xmlns="http://www.w3.org/2000/svg">
<path fill-rule="evenodd" clip-rule="evenodd" d="M8.25 11C8.25 11.1823 8.32243 11.3572 8.45136 11.4861C8.5803 11.6151 8.75516 11.6875 8.9375 11.6875H16.9029L13.9508 14.6383C13.8217 14.7673 13.7491 14.9424 13.7491 15.125C13.7491 15.3076 13.8217 15.4827 13.9508 15.6117C14.0798 15.7408 14.2549 15.8134 14.4375 15.8134C14.6201 15.8134 14.7952 15.7408 14.9242 15.6117L19.0492 11.4867C19.1133 11.4229 19.1641 11.347 19.1987 11.2635C19.2334 11.18 19.2512 11.0904 19.2512 11C19.2512 10.9096 19.2334 10.82 19.1987 10.7365C19.1641 10.653 19.1133 10.5771 19.0492 10.5133L14.9242 6.38825C14.7952 6.25916 14.6201 6.18663 14.4375 6.18663C14.2549 6.18663 14.0798 6.25916 13.9508 6.38825C13.8217 6.51734 13.7491 6.69243 13.7491 6.875C13.7491 7.05757 13.8217 7.23266 13.9508 7.36175L16.9029 10.3125H8.9375C8.75516 10.3125 8.5803 10.3849 8.45136 10.5139C8.32243 10.6428 8.25 10.8177 8.25 11ZM4.8125 20.625C4.63016 20.625 4.4553 20.5526 4.32636 20.4236C4.19743 20.2947 4.125 20.1198 4.125 19.9375V2.0625C4.125 1.88016 4.19743 1.7053 4.32636 1.57636C4.4553 1.44743 4.63016 1.375 4.8125 1.375C4.99484 1.375 5.1697 1.44743 5.29864 1.57636C5.42757 1.7053 5.5 1.88016 5.5 2.0625V19.9375C5.5 20.1198 5.42757 20.2947 5.29864 20.4236C5.1697 20.5526 4.99484 20.625 4.8125 20.625Z" fill="#002736"/>
</svg>
